<svg width="893pt" height="624pt" viewBox="0 0 893 624" xmlns="http://www.w3.org/2000/svg"><g id="#8a3248ff" fill="#8a3248"><path opacity="1.00" d="M 185.24 3.27 C 186.57 1.48 188.67 0.24 190.94 0.32 C 216.81 0.97 242.70 1.37 268.56 2.31 C 261.28 42.02 254.22 81.77 246.92 121.47 C 212.57 99.00 178.28 76.44 143.94 53.95 C 157.64 37.00 171.42 20.12 185.24 3.27 M 189.28 14.29 C 179.05 26.65 169.05 39.19 158.99 51.68 C 185.92 69.26 212.77 86.94 239.69 104.52 C 245.43 73.11 251.10 41.68 256.81 10.25 C 243.52 10.40 230.24 9.56 216.96 10.22 C 210.29 10.32 203.62 10.20 196.95 10.25 C 193.89 10.14 191.13 11.99 189.28 14.29 Z"/><path opacity="1.00" d="M 298.56 20.54 C 300.38 25.09 303.13 29.17 305.56 33.40 C 325.06 66.53 344.59 99.64 364.29 132.64 C 366.31 135.66 366.45 139.99 363.76 142.67 C 348.48 159.84 333.43 177.22 318.37 194.59 C 302.04 183.28 285.65 172.06 269.46 160.55 C 266.99 159.00 265.46 155.90 266.16 153.00 C 276.25 108.68 286.70 64.42 298.56 20.54 M 300.20 51.87 C 292.73 83.89 285.21 115.91 277.98 147.99 C 276.83 151.24 278.88 154.60 281.51 156.43 C 293.10 164.80 304.89 172.90 316.70 180.96 C 328.18 167.73 339.61 154.44 351.36 141.44 C 353.98 138.92 354.21 134.79 352.05 131.90 C 335.22 104.10 319.26 75.79 302.11 48.18 C 301.35 49.34 300.43 50.46 300.20 51.87 Z"/><path opacity="1.00" d="M 515.74 218.53 C 526.25 218.48 536.75 218.49 547.25 218.52 C 547.24 270.68 547.26 322.84 547.25 375.00 C 544.46 375.00 541.67 375.00 538.89 375.00 C 509.52 344.96 480.65 314.43 451.25 284.42 C 451.25 314.61 451.25 344.80 451.25 375.00 C 440.75 375.00 430.25 375.00 419.75 375.00 C 419.75 322.83 419.75 270.67 419.75 218.51 C 423.07 218.49 426.39 218.48 429.71 218.53 C 458.38 247.57 487.08 276.57 515.75 305.60 C 515.74 276.58 515.76 247.55 515.74 218.53 Z"/><path opacity="1.00" d="M 693.79 374.99 C 720.40 322.82 746.88 270.59 773.57 218.47 C 776.64 218.50 779.71 218.50 782.79 218.51 C 807.44 270.66 832.09 322.81 856.67 374.99 C 845.05 375.01 833.43 374.99 821.81 375.00 C 806.95 343.48 792.21 311.91 777.35 280.39 C 761.23 311.92 745.30 343.55 729.06 375.02 C 717.30 374.97 705.55 375.03 693.79 374.99 Z"/><path opacity="1.00" d="M 45.06 244.21 C 91.53 237.13 138.30 232.32 184.90 226.19 C 189.52 225.28 194.57 226.74 197.57 230.47 C 210.13 245.18 223.43 259.25 236.26 273.72 C 219.20 285.84 202.30 298.17 185.01 309.95 C 181.41 312.93 176.33 311.27 172.63 309.34 C 130.00 287.84 87.47 266.13 45.06 244.21 M 182.11 237.05 C 148.36 241.18 114.65 245.58 80.88 249.49 C 111.90 267.15 143.76 283.30 175.64 299.33 C 178.09 300.97 181.31 300.38 183.56 298.67 C 196.14 289.95 208.54 280.95 221.01 272.07 C 211.27 261.12 201.66 250.06 191.66 239.34 C 189.33 236.62 185.37 236.58 182.11 237.05 Z"/><path opacity="1.00" d="M 172.33 325.43 C 175.09 322.25 179.52 319.90 183.79 321.12 C 203.75 325.90 223.58 331.26 243.44 336.44 C 244.98 336.84 246.51 337.43 247.68 338.54 C 247.49 340.14 246.69 341.58 246.14 343.08 C 238.41 362.30 230.71 381.54 222.84 400.70 C 221.95 403.09 219.62 404.78 217.13 405.15 C 173.82 412.77 130.46 420.16 87.12 427.65 C 83.49 428.28 79.80 428.60 76.12 428.46 C 76.41 428.00 77.00 427.08 77.29 426.61 C 108.82 392.75 140.41 358.94 172.33 325.43 M 176.64 335.61 C 153.23 359.90 130.37 384.72 107.35 409.39 C 106.00 410.78 104.60 412.17 103.74 413.95 C 109.23 414.31 114.59 412.41 120.02 411.79 C 149.65 406.71 179.28 401.63 208.87 396.34 C 212.58 396.02 215.27 392.87 216.50 389.58 C 222.60 374.64 228.55 359.64 234.45 344.63 C 218.48 340.53 202.58 336.16 186.52 332.40 C 182.98 331.35 179.06 332.94 176.64 335.61 Z"/><path opacity="1.00" d="M 345.17 399.94 C 360.91 410.52 376.95 420.66 392.49 431.54 C 395.99 434.16 400.15 437.25 400.21 442.08 C 400.25 448.48 398.32 454.69 397.22 460.96 C 391.68 488.03 386.22 515.11 380.69 542.19 C 378.42 552.65 376.85 563.29 373.74 573.55 C 352.85 536.14 333.12 498.09 312.33 460.61 C 310.88 457.95 309.12 455.21 309.20 452.06 C 309.01 448.89 310.89 446.16 312.72 443.75 C 323.83 429.37 334.35 414.54 345.17 399.94 M 347.43 413.76 C 342.31 421.12 337.74 428.98 331.33 435.33 C 326.94 439.87 323.12 445.53 322.75 452.02 C 322.43 458.86 325.58 465.26 329.11 470.92 C 343.86 494.51 355.91 519.62 369.22 544.01 C 371.55 540.84 371.53 536.77 372.46 533.10 C 377.91 506.74 383.29 480.36 388.59 453.97 C 389.26 449.82 391.24 444.55 388.04 441.02 C 374.71 431.64 361.19 422.51 347.43 413.76 Z"/><path opacity="1.00" d="M 214.89 582.76 C 244.53 551.07 273.99 519.22 303.71 487.61 C 321.05 523.75 338.39 559.89 355.86 595.97 C 329.87 605.13 303.91 614.37 277.86 623.36 C 275.81 624.34 273.68 623.13 271.99 622.01 C 252.93 608.97 233.88 595.91 214.89 582.76 M 230.38 581.06 C 243.52 590.12 256.83 598.94 269.74 608.32 C 273.92 611.49 279.67 612.94 284.56 610.55 C 293.13 606.63 302.28 604.32 311.08 601.03 C 321.29 597.35 331.52 593.71 341.72 589.97 C 328.09 561.82 314.56 533.63 300.89 505.51 C 277.33 530.64 253.94 555.93 230.38 581.06 Z"/></g><g id="#e85631ff" fill="#e85631"><path opacity="1.00" d="M 136.42 82.32 C 173.79 104.28 210.78 126.90 248.41 148.42 C 254.71 151.70 261.63 156.22 262.70 163.88 C 263.49 171.89 262.48 179.96 262.49 187.99 C 262.44 199.66 262.93 211.32 262.76 222.99 C 244.88 223.05 227.01 222.87 209.14 222.40 C 204.19 222.43 197.41 222.12 195.59 216.47 C 176.06 173.60 156.79 130.62 137.51 87.64 C 136.71 85.98 136.67 84.11 136.42 82.32 M 158.69 107.53 C 158.53 110.56 160.24 113.16 161.37 115.85 C 175.05 146.36 188.71 176.89 202.55 207.34 C 203.61 209.41 205.36 211.91 207.97 211.74 C 222.97 212.29 237.99 211.87 253.00 212.00 C 252.97 197.30 253.06 182.60 252.96 167.90 C 253.28 164.11 250.01 161.62 247.13 159.88 C 217.75 142.26 188.35 124.66 158.69 107.53 Z"/><path opacity="1.00" d="M 81.94 102.85 C 87.41 98.64 92.81 94.32 98.35 90.19 C 122.03 127.92 145.82 165.58 169.43 203.35 C 123.37 206.35 77.25 208.61 31.16 211.28 C 33.29 195.22 36.83 179.29 37.22 163.04 C 37.24 153.43 39.30 143.63 44.38 135.38 C 49.16 127.38 56.46 121.22 64.40 116.49 C 70.82 112.72 76.07 107.37 81.94 102.85 M 57.29 135.30 C 54.58 137.48 51.07 139.59 50.62 143.40 C 47.80 162.41 45.29 181.47 42.65 200.50 C 78.98 198.44 115.31 196.47 151.62 194.17 C 132.98 164.49 114.31 134.82 95.68 105.13 C 82.88 115.18 70.03 125.16 57.29 135.30 Z"/><path opacity="1.00" d="M 4.53 323.67 C 13.54 306.06 20.10 287.36 27.70 269.14 C 66.93 287.69 106.17 306.20 145.40 324.74 C 114.43 352.72 83.68 380.92 52.70 408.89 C 38.34 392.06 24.77 374.52 9.05 358.92 C 4.20 354.24 0.59 348.06 0.00 341.26 L 0.00 338.56 C 0.48 333.34 2.18 328.32 4.53 323.67 M 33.06 282.91 C 26.37 298.91 20.19 315.13 12.86 330.85 C 11.18 334.61 9.76 338.91 11.06 343.01 C 11.98 346.59 14.48 349.46 16.97 352.08 C 29.95 365.53 41.37 380.37 53.79 394.32 C 78.12 371.88 102.76 349.77 127.16 327.40 C 95.80 312.55 64.38 297.83 33.06 282.91 Z"/><path opacity="1.00" d="M 240.97 399.15 C 257.54 396.03 273.80 391.51 290.18 387.52 C 295.62 407.20 300.88 426.95 305.02 446.95 C 305.61 449.71 305.27 453.05 303.00 454.98 C 269.04 485.68 235.01 516.30 200.86 546.78 C 200.41 546.55 199.53 546.10 199.08 545.87 C 208.26 503.54 218.30 461.39 227.59 419.08 C 228.79 414.25 229.11 409.04 231.74 404.70 C 233.73 401.49 237.38 399.84 240.97 399.15 M 244.05 409.45 C 240.76 410.40 239.42 414.05 238.72 417.06 C 230.53 449.86 224.02 483.05 216.91 516.10 C 214.88 516.15 216.23 519.45 217.65 517.90 L 217.79 517.17 C 242.68 494.88 267.81 472.87 292.71 450.60 C 294.22 449.28 295.03 447.10 294.40 445.15 C 290.76 429.95 286.86 414.80 283.02 399.65 C 270.00 402.79 256.94 405.82 244.05 409.45 Z"/><path opacity="1.00" d="M 67.68 455.99 C 113.14 444.22 158.59 432.42 204.08 420.74 C 192.16 463.97 180.10 507.15 168.13 550.36 C 145.42 541.93 122.74 533.44 100.09 524.83 C 97.73 524.06 95.96 522.15 95.09 519.85 C 85.85 498.61 76.77 477.30 67.68 455.99 M 81.77 462.81 C 87.71 476.91 94.13 490.81 99.54 505.12 C 101.88 512.04 107.62 517.50 114.56 519.71 C 130.38 524.83 145.77 531.16 161.36 536.94 C 170.78 502.96 180.17 468.97 189.60 434.99 C 153.63 444.15 117.74 453.62 81.77 462.81 Z"/></g><g id="#e74b21ff" fill="#e74b21"><path opacity="1.00" d="M 589.93 237.02 C 597.94 225.59 611.37 218.93 624.96 217.02 C 636.80 215.92 648.96 217.63 659.88 222.39 C 667.95 225.90 675.26 230.85 682.56 235.71 C 677.04 244.60 671.63 253.57 666.08 262.45 C 659.11 258.15 652.47 253.10 644.71 250.27 C 636.59 247.65 627.08 246.80 619.59 251.66 C 612.11 255.59 612.39 267.47 618.88 272.21 C 625.49 277.42 634.24 277.96 641.81 281.06 C 655.98 286.45 670.18 294.42 678.42 307.61 C 685.56 318.55 687.31 332.79 682.99 345.12 C 677.28 362.01 661.97 375.53 644.12 377.85 C 626.44 379.66 608.10 376.23 592.67 367.24 C 585.01 362.85 578.11 357.24 572.01 350.87 C 579.62 343.57 587.40 336.46 595.01 329.16 C 604.67 339.76 618.56 346.47 632.96 346.81 C 638.63 347.45 644.87 346.27 648.92 341.97 C 652.71 337.89 655.44 331.61 652.73 326.23 C 649.26 319.45 642.20 315.60 635.59 312.45 C 628.66 309.06 620.88 308.14 613.81 305.13 C 602.70 300.64 592.30 292.97 587.07 281.93 C 580.30 267.85 580.91 249.99 589.93 237.02 Z"/><path opacity="1.00" d="M 286.76 218.76 C 321.50 218.75 356.25 218.75 391.00 218.75 C 391.00 229.17 391.00 239.58 391.00 250.00 C 356.25 250.00 321.50 250.00 286.75 250.00 C 286.75 239.58 286.75 229.17 286.76 218.76 Z"/><path opacity="1.00" d="M 286.76 278.76 C 315.58 278.75 344.41 278.75 373.24 278.76 C 373.25 289.17 373.25 299.58 373.25 310.00 C 344.42 310.00 315.58 310.00 286.75 310.00 C 286.75 299.58 286.75 289.17 286.76 278.76 Z"/><path opacity="1.00" d="M 286.76 343.76 C 321.34 343.75 355.92 343.75 390.50 343.75 C 390.50 354.17 390.50 364.58 390.50 375.00 C 355.92 375.00 321.33 375.00 286.75 375.00 C 286.75 364.58 286.75 354.17 286.76 343.76 Z"/></g><g id="#87777dff" fill="#87777d"><path opacity="1.00" d="M 551.39 391.08 C 553.24 391.02 555.09 391.00 556.96 390.98 C 565.17 409.58 573.74 428.03 582.15 446.55 C 579.97 447.68 577.80 448.83 575.66 450.02 C 572.54 442.99 569.62 435.87 566.27 428.95 C 557.76 429.05 549.25 429.00 540.74 428.97 C 537.49 435.92 534.36 442.93 531.29 449.96 C 529.44 448.83 527.61 447.68 525.79 446.53 C 534.46 428.11 543.07 409.66 551.39 391.08 M 553.61 400.28 C 550.17 407.84 546.88 415.46 543.39 423.00 C 550.17 423.00 556.96 423.00 563.74 423.00 C 560.33 415.44 557.21 407.75 553.61 400.28 Z"/><path opacity="1.00" d="M 737.40 391.17 C 745.84 390.11 754.87 393.09 760.54 399.56 C 771.73 412.06 770.83 433.89 757.87 444.84 C 748.35 453.16 732.85 453.04 723.37 444.73 C 710.25 433.28 709.65 410.38 722.22 398.30 C 726.32 394.32 731.77 391.94 737.40 391.17 M 735.44 397.71 C 725.93 400.43 720.72 410.64 720.46 419.99 C 719.99 428.85 723.86 438.61 732.05 442.84 C 739.16 446.89 748.72 445.15 754.26 439.23 C 762.98 430.18 762.98 415.02 756.04 404.95 C 751.59 398.49 742.97 395.33 735.44 397.71 Z"/><path opacity="1.00" d="M 820.71 402.72 C 829.17 393.71 842.26 390.77 854.21 391.00 C 854.33 392.98 854.47 394.98 854.61 396.97 C 847.34 396.92 839.85 397.96 833.29 401.22 C 826.64 404.58 821.62 411.39 821.30 418.94 C 820.74 425.70 823.48 432.77 828.97 436.89 C 836.48 442.64 846.29 444.25 855.54 444.02 C 855.36 446.01 855.16 448.01 854.97 450.00 C 843.38 450.20 830.81 448.02 822.02 439.87 C 811.85 430.45 811.20 412.84 820.71 402.72 Z"/><path opacity="1.00" d="M 423.90 393.08 C 426.18 392.71 428.46 392.36 430.73 391.94 C 436.85 405.99 443.24 419.94 449.68 433.85 C 449.84 433.85 450.17 433.86 450.33 433.87 C 456.62 419.90 462.90 405.92 469.12 391.91 C 471.24 392.14 473.36 392.41 475.50 392.62 C 478.90 411.07 482.93 429.41 486.38 447.85 C 484.12 448.10 481.88 448.47 479.70 449.07 C 476.59 433.43 474.04 417.66 470.67 402.07 C 464.59 415.55 458.23 428.90 452.38 442.49 C 450.38 442.47 448.38 442.46 446.38 442.45 C 440.46 429.05 434.55 415.64 428.11 402.49 C 424.43 417.94 421.56 433.56 418.33 449.10 C 416.24 448.52 414.11 448.15 411.97 447.87 C 416.29 429.68 420.14 411.39 423.90 393.08 Z"/><path opacity="1.00" d="M 627.85 392.00 C 636.87 392.31 646.61 390.70 654.92 395.13 C 660.24 397.86 663.11 404.08 662.16 409.93 C 661.61 416.25 656.23 420.47 651.47 423.92 C 657.93 431.37 664.78 438.49 671.72 445.50 C 670.02 447.09 668.23 448.59 666.37 449.99 C 658.27 440.91 650.17 431.82 642.14 422.68 C 646.62 420.73 651.56 418.54 653.91 413.96 C 655.95 409.64 655.46 403.55 651.27 400.67 C 646.42 397.50 640.38 397.98 634.86 398.01 C 634.60 415.00 634.71 432.00 634.87 449.00 C 632.53 449.00 630.18 449.00 627.85 449.00 C 628.26 430.00 628.28 411.00 627.85 392.00 Z"/></g><path fill="#d8a295" opacity="0.90" d="M 217.65 517.90 C 216.23 519.45 214.88 516.15 216.91 516.10 C 217.13 516.37 217.57 516.91 217.79 517.17 L 217.65 517.90 Z" id="#d8a295e6"/></svg>