<?xml version="1.0" encoding="UTF-8"?>
<svg version="1.1" xmlns="http://www.w3.org/2000/svg" width="351" height="351">
<path d="M0 0 C1.65776 0.67995238 3.30109145 1.3951572 4.9375 2.125 C5.85402344 2.51945312 6.77054688 2.91390625 7.71484375 3.3203125 C10 5 10 5 10.78125 7.46875 C11.08901493 12.43695538 11.36674791 17.40097147 11.5625 22.375 C11.60568359 23.39722656 11.64886719 24.41945313 11.69335938 25.47265625 C11.79887792 27.98165288 11.90099213 30.49073943 12 33 C10.35153231 32.55123384 8.70626545 32.09069512 7.0625 31.625 C5.68771484 31.24214844 5.68771484 31.24214844 4.28515625 30.8515625 C2 30 2 30 1 28 C-0.29999492 18.72349301 -0.10669497 9.34173776 0 0 Z " fill="#0770FE" transform="translate(18,68)"/>
<path d="M0 0 C2.48034449 1.31031436 4.9593035 2.62313468 7.4375 3.9375 C8.14455078 4.31068359 8.85160156 4.68386719 9.58007812 5.06835938 C14.88671875 7.88671875 14.88671875 7.88671875 16 9 C16.07319621 11.69654854 16.09242537 14.36691458 16.0625 17.0625 C16.05798828 17.82111328 16.05347656 18.57972656 16.04882812 19.36132812 C16.0370068 21.24091871 16.01907078 23.12046899 16 25 C12.22740967 24.43684521 8.72649742 23.69256728 5.125 22.4375 C4.34382813 22.16808594 3.56265625 21.89867188 2.7578125 21.62109375 C2.17773438 21.41613281 1.59765625 21.21117188 1 21 C0.07907719 16.34462644 -0.12205997 11.85314567 -0.0625 7.125 C-0.05798828 6.43664062 -0.05347656 5.74828125 -0.04882812 5.0390625 C-0.03716336 3.35933665 -0.01923271 1.67965625 0 0 Z " fill="#076FFE" transform="translate(60,92)"/>
<path d="M0 0 C3.90491403 1.57936148 7.6423296 3.37577259 11.39453125 5.28515625 C12.08869141 5.63255859 12.78285156 5.97996094 13.49804688 6.33789062 C17.20221278 8.20580335 20.80593365 10.15501466 24.33203125 12.34765625 C18.46686271 17.2352967 18.46686271 17.2352967 15.33203125 18.34765625 C12.07621877 17.78232562 9.31193411 16.49041434 6.34765625 15.0625 C5.41308594 14.61455078 4.47851562 14.16660156 3.515625 13.70507812 C2.54753906 13.23650391 1.57945312 12.76792969 0.58203125 12.28515625 C-0.40152344 11.81271484 -1.38507813 11.34027344 -2.3984375 10.85351562 C-4.82323037 9.68820254 -7.24631506 8.51947532 -9.66796875 7.34765625 C-7.6661054 3.03455067 -5.30930035 -1.29817446 0 0 Z " fill="#93C1FE" transform="translate(311.66796875,49.65234375)"/>
<path d="M0 0 C1.08397952 3.80441843 1.61885256 7.06846607 1 11 C-2.11749111 14.53844393 -5.94789289 16.65066628 -10 19 C-12.02299585 20.33004997 -14.04395023 21.66321207 -16.0625 23 C-20.72991071 26 -20.72991071 26 -23 26 C-24.07196934 21.66745724 -24.34790235 18.29107489 -23 14 C-19.03953029 10.05121309 -13.82165206 7.62771701 -8.90478516 5.07421875 C-5.84138868 3.34659192 -3.56100912 0 0 0 Z " fill="#0150BA" transform="translate(205,314)"/>
<path d="M0 0 C6.18554594 2.72924631 12.19955587 5.51973352 18 9 C15.01550155 11.59940188 11.89046826 13.78614334 8.5 15.8125 C7.40171875 16.47185547 7.40171875 16.47185547 6.28125 17.14453125 C3.34936673 18.24398747 1.96395199 17.96226313 -1 17 C-3.67578125 15.58984375 -3.67578125 15.58984375 -6.3125 13.9375 C-7.19550781 13.38964844 -8.07851563 12.84179688 -8.98828125 12.27734375 C-9.65214844 11.85582031 -10.31601562 11.43429688 -11 11 C-9.52202738 7.32943063 -7.52384523 5.58914217 -4.375 3.25 C-3.55773437 2.63640625 -2.74046875 2.0228125 -1.8984375 1.390625 C-0.95871094 0.70226562 -0.95871094 0.70226562 0 0 Z " fill="#93C1FE" transform="translate(276,77)"/>
<path d="M0 0 C2.81484045 2.81484045 2.62757042 5.2166247 3.125 9.125 C3.29257813 10.40632813 3.46015625 11.68765625 3.6328125 13.0078125 C3.75398438 13.99523437 3.87515625 14.98265625 4 16 C1.545324 17.67228535 -0.91339674 19.3379686 -3.375 21 C-4.07367188 21.47695313 -4.77234375 21.95390625 -5.4921875 22.4453125 C-6.1625 22.89648438 -6.8328125 23.34765625 -7.5234375 23.8125 C-8.14138184 24.23144531 -8.75932617 24.65039062 -9.39599609 25.08203125 C-11 26 -11 26 -13 26 C-14.56732496 13.46140036 -14.56732496 13.46140036 -13 8 C-9.76334912 3.8454929 -4.78394015 1.87940506 0 0 Z " fill="#0150BA" transform="translate(195,266)"/>
<path d="M0 0 C0.99 3.3 1.98 6.6 3 10 C-3.96085386 15.71689899 -10.95280278 21.3897584 -18 27 C-20 26 -20 26 -20.8359375 23.8125 C-21.46070918 20.55282165 -21.67483938 18.2674185 -21 15 C-17.4816311 11.25520142 -13.31325939 8.74770598 -9 6 C-7.5992106 4.84303401 -6.21829192 3.66075307 -4.875 2.4375 C-2 0 -2 0 0 0 Z " fill="#0150BA" transform="translate(228,296)"/>
<path d="M0 0 C5.02759076 0.63730024 9.37609422 2.112821 14.0625 3.9375 C15.10374023 4.33485352 15.10374023 4.33485352 16.16601562 4.74023438 C19.79056156 6.12740627 23.40097641 7.54776241 27 9 C25.9114745 12.26557651 24.55773853 14.05314213 21.8359375 16.16796875 C20 17 20 17 16.125 16.1875 C14.41035184 15.4733092 12.70325525 14.74095098 11 14 C8.89174639 13.19431795 6.77530211 12.41287299 4.65771484 11.63208008 C1.43100802 10.44095903 -1.78387443 9.2193654 -5 8 C-3.58208437 5.06553114 -2.01667393 2.56667591 0 0 Z " fill="#93C1FE" transform="translate(280,38)"/>
<path d="M0 0 C3.3 0.99 6.6 1.98 10 3 C11.65707093 11.98361723 13.27643663 20.88310149 14 30 C10.7 29.34 7.4 28.68 4 28 C2.11494121 18.65769606 0.59584097 9.5334555 0 0 Z " fill="#076FFE" transform="translate(20,100)"/>
<path d="M0 0 C0.99467666 4.1030412 1.45077847 7.78818094 1 12 C-1.44921875 14.546875 -1.44921875 14.546875 -4.6875 16.75 C-5.74324219 17.48734375 -6.79898438 18.2246875 -7.88671875 18.984375 C-15.63372093 24 -15.63372093 24 -18 24 C-18.96211058 19.05403896 -19.27724248 14.90623303 -18 10 C-13.90033868 5.26486306 -6.29408081 0 0 0 Z " fill="#0150BA" transform="translate(200,285)"/>
<path d="M0 0 C0.74765625 0.30035156 1.4953125 0.60070312 2.265625 0.91015625 C3.82654311 1.53229361 5.39566713 2.13630265 6.984375 2.68359375 C9.06942163 3.57389021 10.42313822 4.3551334 12 6 C13.03784464 9.65976795 13.02984679 13.21443214 13 17 C13.01289062 17.97066406 13.02578125 18.94132812 13.0390625 19.94140625 C13.0591607 22.29624508 13.04596308 24.64566884 13 27 C11.18641846 26.52494322 9.37415821 26.04483958 7.5625 25.5625 C6.55316406 25.29566406 5.54382812 25.02882813 4.50390625 24.75390625 C2 24 2 24 1 23 C-0.31304169 15.41353691 -0.1081732 7.66827809 0 0 Z " fill="#076FFE" transform="translate(45,84)"/>
<path d="M0 0 C3.12830756 1.45131349 6.25203426 2.91223157 9.375 4.375 C10.70917969 4.99375 10.70917969 4.99375 12.0703125 5.625 C12.92109375 6.02460937 13.771875 6.42421875 14.6484375 6.8359375 C15.43395996 7.20251465 16.21948242 7.5690918 17.02880859 7.94677734 C19 9 19 9 21 11 C19.2864574 12.2303896 17.55344814 13.43370391 15.8125 14.625 C14.84957031 15.29789063 13.88664062 15.97078125 12.89453125 16.6640625 C10 18 10 18 7.59375 17.4375 C6.7378125 16.963125 5.881875 16.48875 5 16 C3.82824219 15.43023437 2.65648437 14.86046875 1.44921875 14.2734375 C0.19427683 13.64268135 -1.05961397 13.00983 -2.3125 12.375 C-2.95767578 12.05015625 -3.60285156 11.7253125 -4.26757812 11.390625 C-5.84597541 10.59558044 -7.42311694 9.79804366 -9 9 C-9 8.34 -9 7.68 -9 7 C-7.03125 5.2734375 -7.03125 5.2734375 -4.5 3.375 C-3.6646875 2.74335937 -2.829375 2.11171875 -1.96875 1.4609375 C-1.3190625 0.97882813 -0.669375 0.49671875 0 0 Z " fill="#93C1FE" transform="translate(288,67)"/>
<path d="M0 0 C2.29576678 2.29576678 3.0638375 3.90346249 4 7 C3.85755183 10.72842591 3.14011651 11.8605282 0.453125 14.53515625 C-0.60436226 15.39039907 -1.67252127 16.23258484 -2.75 17.0625 C-3.2759375 17.48337891 -3.801875 17.90425781 -4.34375 18.33789062 C-5.88696367 19.56978768 -7.44336157 20.78511087 -9 22 C-9.91265625 22.76183594 -10.8253125 23.52367187 -11.765625 24.30859375 C-14 26 -14 26 -16 26 C-16.66 22.04 -17.32 18.08 -18 14 C-17.11957031 13.32453125 -16.23914063 12.6490625 -15.33203125 11.953125 C-14.15883404 11.05210954 -12.98565808 10.1510664 -11.8125 9.25 C-11.23435547 8.8065625 -10.65621094 8.363125 -10.06054688 7.90625 C-6.67730867 5.30669974 -3.32210637 2.67770532 0 0 Z " fill="#0150BA" transform="translate(222,283)"/>
<path d="M0 0 C1.5078125 1.4609375 1.5078125 1.4609375 3.125 3.375 C3.66382812 4.00148438 4.20265625 4.62796875 4.7578125 5.2734375 C6 7 6 7 6 9 C2.94251918 10.18012751 -0.12170492 11.34166167 -3.1875 12.5 C-4.05181641 12.83386719 -4.91613281 13.16773438 -5.80664062 13.51171875 C-6.64775391 13.82753906 -7.48886719 14.14335938 -8.35546875 14.46875 C-9.12528076 14.76201172 -9.89509277 15.05527344 -10.68823242 15.35742188 C-13.25298768 16.07032037 -15.34970316 16.19666709 -18 16 C-20.01953125 14.7578125 -20.01953125 14.7578125 -21.8125 13.125 C-22.41707031 12.59132813 -23.02164063 12.05765625 -23.64453125 11.5078125 C-25 10 -25 10 -25 8 C-21.21008507 6.66165014 -17.41779164 5.33017337 -13.625 4 C-12.54476562 3.6184375 -11.46453125 3.236875 -10.3515625 2.84375 C-9.3203125 2.4828125 -8.2890625 2.121875 -7.2265625 1.75 C-6.27346191 1.41484375 -5.32036133 1.0796875 -4.33837891 0.734375 C-2 0 -2 0 0 0 Z " fill="#93C1FE" transform="translate(86,48)"/>
<path d="M0 0 C3.95431825 1.0797252 7.73599285 2.41962715 11.5546875 3.90234375 C12.27398437 4.175625 12.99328125 4.44890625 13.734375 4.73046875 C18.93266369 6.71633185 18.93266369 6.71633185 21.3046875 7.90234375 C19.80843526 11.71098581 17.78623876 13.76593729 14.3046875 15.90234375 C9.24550683 15.49999359 4.69693976 13.74999543 -0.0078125 11.96484375 C-0.73548828 11.69994141 -1.46316406 11.43503906 -2.21289062 11.16210938 C-7.57178267 9.14940342 -7.57178267 9.14940342 -8.6953125 6.90234375 C-7.84680195 5.69577378 -6.96522594 4.51240982 -6.0703125 3.33984375 C-5.58304687 2.67855469 -5.09578125 2.01726563 -4.59375 1.3359375 C-2.6953125 -0.09765625 -2.6953125 -0.09765625 0 0 Z " fill="#93C1FE" transform="translate(274.6953125,48.09765625)"/>
<path d="M0 0 C5.445 1.485 5.445 1.485 11 3 C12.32 10.92 13.64 18.84 15 27 C6 26 6 26 3 23 C2.3840332 21.08642578 2.3840332 21.08642578 2.05078125 18.9453125 C1.92509766 18.16542969 1.79941406 17.38554688 1.66992188 16.58203125 C1.49299805 15.36580078 1.49299805 15.36580078 1.3125 14.125 C1.18294922 13.32191406 1.05339844 12.51882812 0.91992188 11.69140625 C0.29548564 7.68047717 0 4.10084884 0 0 Z " fill="#076FFE" transform="translate(33,105)"/>
<path d="M0 0 C4.22667388 1.39880978 6.83487298 3.39943995 10.0625 6.4375 C13.50380217 9.6913753 13.50380217 9.6913753 17.31640625 12.46875 C19 14 19 14 19.2421875 16.41015625 C19.12101562 17.28542969 18.99984375 18.16070312 18.875 19.0625 C18.76929688 19.94035156 18.66359375 20.81820313 18.5546875 21.72265625 C18 24 18 24 16 26 C14.57107422 24.77023437 14.57107422 24.77023437 13.11328125 23.515625 C11.84639231 22.42703894 10.57946309 21.33849976 9.3125 20.25 C8.68666016 19.71117187 8.06082031 19.17234375 7.41601562 18.6171875 C3.9934917 15.67847585 0.5444177 12.79216079 -3 10 C-2.01 6.7 -1.02 3.4 0 0 Z " fill="#076FFE" transform="translate(134,283)"/>
<path d="M0 0 C-0.50548338 8.54092606 -2.06734291 16.67377292 -4 25 C-7.87684087 26.19287411 -10.91621923 27 -15 27 C-14.58798748 23.23943305 -14.08401128 19.49682353 -13.5625 15.75 C-13.44712891 14.68652344 -13.33175781 13.62304688 -13.21289062 12.52734375 C-12.07586092 4.83424915 -12.07586092 4.83424915 -8.90185547 2.37304688 C-5.92960772 1.02240414 -3.28543044 0 0 0 Z " fill="#0150BA" transform="translate(324,105)"/>
<path d="M0 0 C0.56203125 0.44859375 1.1240625 0.8971875 1.703125 1.359375 C2.26515625 1.78476562 2.8271875 2.21015625 3.40625 2.6484375 C4.83854167 3.88541667 6.27083333 5.12239583 7.703125 6.359375 C4.297712 9.11775953 0.59339529 11.13168529 -3.296875 13.109375 C-3.91304687 13.43808594 -4.52921875 13.76679687 -5.1640625 14.10546875 C-9.67301204 16.39864695 -9.67301204 16.39864695 -12.46875 16.22265625 C-14.60563099 15.21357356 -16.56481921 14.08521127 -18.546875 12.796875 C-19.25328125 12.34183594 -19.9596875 11.88679688 -20.6875 11.41796875 C-21.21859375 11.06863281 -21.7496875 10.71929687 -22.296875 10.359375 C-18.86535402 6.33806135 -15.04065665 4.54688876 -10.296875 2.484375 C-9.5853125 2.15179688 -8.87375 1.81921875 -8.140625 1.4765625 C-2.93063546 -0.81738812 -2.93063546 -0.81738812 0 0 Z " fill="#93C1FE" transform="translate(59.296875,58.640625)"/>
<path d="M0 0 C2.38446247 1.27171332 4.68282074 2.61206498 7 4 C7.96164063 4.52464844 8.92328125 5.04929687 9.9140625 5.58984375 C13.08144873 7.52546867 15.54269064 9.20720692 18 12 C18.92360095 16.47946462 18.67956576 20.49701883 18 25 C13.03657693 23.40013936 9.29801238 20.47460168 5.1875 17.375 C4.49462891 16.859375 3.80175781 16.34375 3.08789062 15.8125 C1.38826337 14.54657074 -0.30637435 13.27394735 -2 12 C-1.34 8.04 -0.68 4.08 0 0 Z " fill="#0770FE" transform="translate(155,299)"/>
<path d="M0 0 C-0.14209669 2.6877438 -0.2885723 5.37513302 -0.4375 8.0625 C-0.49647461 9.19075195 -0.49647461 9.19075195 -0.55664062 10.34179688 C-0.81580719 14.94698741 -1.2799421 19.44366724 -2 24 C-5.63 25.32 -9.26 26.64 -13 28 C-13.03431028 25.66690113 -13.05717109 23.33316049 -13.02734375 21 C-13.00873302 18.95813749 -13.04474749 16.91521229 -13.12890625 14.875 C-13.12486496 11.64196858 -12.99633795 9.08200538 -12 6 C-8.75047876 2.93893957 -4.61511995 0 0 0 Z " fill="#0150BA" transform="translate(327,78)"/>
<path d="M0 0 C0.99 0.33 1.98 0.66 3 1 C3.94921875 3.28515625 3.94921875 3.28515625 4.6875 6.0625 C4.93886719 6.98160156 5.19023437 7.90070313 5.44921875 8.84765625 C5.63097656 9.55792969 5.81273437 10.26820313 6 11 C4.2711195 12.41701589 2.54188254 13.83359686 0.8125 15.25 C-0.63189453 16.43335938 -0.63189453 16.43335938 -2.10546875 17.640625 C-3.06066406 18.41921875 -4.01585937 19.1978125 -5 20 C-5.88300781 20.77859375 -6.76601562 21.5571875 -7.67578125 22.359375 C-8.44277344 22.90078125 -9.20976562 23.4421875 -10 24 C-10.99 23.67 -11.98 23.34 -13 23 C-13.94841828 19.23401792 -14.4644026 15.87342384 -14 12 C-11.49361593 8.62666269 -8.41302115 6.40719703 -5 4 C-3.576875 2.7315625 -3.576875 2.7315625 -2.125 1.4375 C-1.073125 0.7259375 -1.073125 0.7259375 0 0 Z " fill="#0150BA" transform="translate(216,270)"/>
<path d="M0 0 C4.68803656 0.73048301 8.90885555 2.36636885 13.3125 4.0625 C14.42334961 4.48499023 14.42334961 4.48499023 15.55664062 4.91601562 C17.37242655 5.60718575 19.18639899 6.30311689 21 7 C21 10 21 10 19.6796875 11.640625 C19.08414062 12.17171875 18.48859375 12.7028125 17.875 13.25 C17.00488281 14.06210938 17.00488281 14.06210938 16.1171875 14.890625 C13.04876051 16.49843545 11.3135085 15.86492318 8 15 C5.68974645 14.19746318 3.39734984 13.34180249 1.125 12.4375 C-0.02742188 11.98246094 -1.17984375 11.52742188 -2.3671875 11.05859375 C-3.23601562 10.70925781 -4.10484375 10.35992187 -5 10 C-5 4.69520066 -3.4637943 3.81017373 0 0 Z " fill="#93C1FE" transform="translate(263,58)"/>
<path d="M0 0 C1.62566606 0.47690204 3.25051311 0.95659666 4.875 1.4375 C5.77992187 1.70433594 6.68484375 1.97117187 7.6171875 2.24609375 C10 3 10 3 12 4 C12.50244141 5.94946289 12.50244141 5.94946289 12.8515625 8.47265625 C13.04492188 9.82133789 13.04492188 9.82133789 13.2421875 11.19726562 C13.36851563 12.14279297 13.49484375 13.08832031 13.625 14.0625 C13.7590625 15.01189453 13.893125 15.96128906 14.03125 16.93945312 C14.36225648 19.29196345 14.68478072 21.64533094 15 24 C10.83861737 24.08159574 7.0527516 23.98248524 3 23 C2.49494737 20.10496617 1.9957978 17.20912047 1.5 14.3125 C1.35691406 13.49587891 1.21382812 12.67925781 1.06640625 11.83789062 C0.38834038 7.85021752 -0.19858392 4.06269596 0 0 Z " fill="#076FFE" transform="translate(47,110)"/>
<path d="M0 0 C-0.66 6.93 -1.32 13.86 -2 21 C-11.75 25 -11.75 25 -14 25 C-14.42508966 8.77857869 -14.42508966 8.77857869 -11 4.50390625 C-8.70262653 3.02754926 -6.56071819 1.93501453 -4 1 C-2 0 -2 0 0 0 Z " fill="#0150BA" transform="translate(313,86)"/>
<path d="M0 0 C2.01953125 1.41015625 2.01953125 1.41015625 3.8125 3.0625 C4.41707031 3.61035156 5.02164063 4.15820312 5.64453125 4.72265625 C6.31548828 5.35494141 6.31548828 5.35494141 7 6 C1.81224242 10.1404638 -4.51920955 13.86612344 -11.25 14.125 C-14.99727299 12.59202469 -17.8067454 10.49073859 -21 8 C-18.36719965 4.90039107 -15.26979316 3.46814048 -11.625 1.75 C-10.50351562 1.20859375 -9.38203125 0.6671875 -8.2265625 0.109375 C-4.78141245 -1.07515601 -3.37373136 -1.25310022 0 0 Z " fill="#93C1FE" transform="translate(72,69)"/>
<path d="M0 0 C3.3203125 5.078125 3.3203125 5.078125 4 7 C2.83187137 11.21774689 -0.90619199 14.1994449 -3.9375 17.1875 C-4.47568359 17.73341797 -5.01386719 18.27933594 -5.56835938 18.84179688 C-8.01160618 21.27299314 -9.68733927 22.89577976 -13 24 C-13.5345256 22.75579353 -14.05208611 21.50429064 -14.5625 20.25 C-14.85253906 19.55390625 -15.14257812 18.8578125 -15.44140625 18.140625 C-16.10455445 15.59932979 -15.85649424 14.46351863 -15 12 C-13.72485352 10.44433594 -13.72485352 10.44433594 -12.12890625 8.984375 C-11.55462891 8.45585937 -10.98035156 7.92734375 -10.38867188 7.3828125 C-9.4847168 6.57457031 -9.4847168 6.57457031 -8.5625 5.75 C-7.96373047 5.19570313 -7.36496094 4.64140625 -6.74804688 4.0703125 C-2.27170567 0 -2.27170567 0 0 0 Z " fill="#0150BA" transform="translate(241,267)"/>
<path d="M0 0 C1.75129657 1.10210905 3.50098464 2.20677432 5.25 3.3125 C6.22453125 3.92738281 7.1990625 4.54226563 8.203125 5.17578125 C9.58757812 6.07876953 9.58757812 6.07876953 11 7 C11.7734375 7.4228125 12.546875 7.845625 13.34375 8.28125 C15 10 15 10 15.390625 13.35546875 C15.32101563 15.25232422 15.32101563 15.25232422 15.25 17.1875 C15.21390625 18.45980469 15.1778125 19.73210937 15.140625 21.04296875 C15.07101563 22.50669922 15.07101563 22.50669922 15 24 C11.95489786 22.40696045 8.97268418 20.72415682 6 19 C5.20335937 18.56558594 4.40671875 18.13117188 3.5859375 17.68359375 C1.3046321 16.26886196 -0.35423139 15.12712155 -2 13 C-2.56909275 8.38962833 -1.45035099 4.35105298 0 0 Z " fill="#076FFE" transform="translate(158,284)"/>
<path d="M0 0 C8.02770189 0.55363461 15.33854067 2.65687944 23 5 C21.14099778 8.13999535 19.24154592 11.11801239 17 14 C11.97414737 12.92891665 6.97668162 11.78157683 2 10.5 C1.071875 10.2628125 0.14375 10.025625 -0.8125 9.78125 C-3 9 -3 9 -4 7 C-3.22265625 5.2734375 -3.22265625 5.2734375 -2.0625 3.375 C-1.381875 2.26125 -0.70125 1.1475 0 0 Z " fill="#93C1FE" transform="translate(247,41)"/>
<path d="M0 0 C2.5 2.3125 2.5 2.3125 5 5 C5 5.99 5 6.98 5 8 C1.44777495 9.40265285 -2.11795539 10.76709414 -5.6875 12.125 C-6.69490234 12.52332031 -7.70230469 12.92164063 -8.74023438 13.33203125 C-9.71669922 13.69941406 -10.69316406 14.06679688 -11.69921875 14.4453125 C-12.59471436 14.79094238 -13.49020996 15.13657227 -14.4128418 15.49267578 C-17.63643059 16.12479973 -19.13930031 15.54190703 -22 14 C-23.8125 11.875 -23.8125 11.875 -25 10 C-16.75059575 6.38712223 -8.5131365 2.95353715 0 0 Z " fill="#93C1FE" transform="translate(77,39)"/>
<path d="M0 0 C2.70196109 1.95494832 5.35142209 3.9734366 8 6 C9.58554688 7.17755859 9.58554688 7.17755859 11.203125 8.37890625 C12.30328857 9.23021555 13.40225075 10.08307973 14.5 10.9375 C15.5415625 11.73027344 16.583125 12.52304687 17.65625 13.33984375 C20 16 20 16 20.40625 19.69140625 C20 23 20 23 19 25 C14.85245042 23.22692255 11.51529965 20.45635004 8 17.6875 C7.38382813 17.21376953 6.76765625 16.74003906 6.1328125 16.25195312 C2.57585236 13.46210563 -0.31523714 10.68483702 -3 7 C-2.01 4.69 -1.02 2.38 0 0 Z " fill="#076FFE" transform="translate(130,295)"/>
<path d="M0 0 C4.32504836 1.65863505 7.09418825 4.871041 10.25 8.125 C11.08144531 8.96998047 11.08144531 8.96998047 11.9296875 9.83203125 C13.29104485 11.21686028 14.64614859 12.60783204 16 14 C15.01 17.3 14.02 20.6 13 24 C9.7082525 22.35412625 8.20294843 21.4470074 5.765625 18.9609375 C5.19199219 18.38085938 4.61835937 17.80078125 4.02734375 17.203125 C3.44082031 16.59984375 2.85429688 15.9965625 2.25 15.375 C1.64800781 14.76398438 1.04601562 14.15296875 0.42578125 13.5234375 C-1.05405305 12.02011376 -2.52764676 10.51065144 -4 9 C-2.78534783 5.92254092 -1.52352768 2.93823196 0 0 Z " fill="#076FFE" transform="translate(117,266)"/>
<path d="M0 0 C-1.38365897 22.57548845 -1.38365897 22.57548845 -5 28 C-8.625 28.6875 -8.625 28.6875 -12 29 C-11.43708547 19.83808082 -9.79203512 10.98271694 -8 2 C-2.25 0 -2.25 0 0 0 Z " fill="#0150BA" transform="translate(335,101)"/>
<path d="M0 0 C1.921875 1.77734375 1.921875 1.77734375 3.75 3.9375 C4.67039062 5.00291016 4.67039062 5.00291016 5.609375 6.08984375 C7 8 7 8 7 10 C5.281952 10.89663451 3.54996503 11.76659588 1.8125 12.625 C0.84957031 13.11226562 -0.11335938 13.59953125 -1.10546875 14.1015625 C-4 15 -4 15 -6.59375 14.3671875 C-9.10245456 12.94178718 -11.15678856 11.41618794 -13.3125 9.5 C-14.00988281 8.8915625 -14.70726563 8.283125 -15.42578125 7.65625 C-17 6 -17 6 -17 4 C-14.92227529 3.13227971 -12.83756823 2.28126381 -10.75 1.4375 C-9.58984375 0.96183594 -8.4296875 0.48617187 -7.234375 -0.00390625 C-2.7771473 -1.37660319 -2.7771473 -1.37660319 0 0 Z " fill="#93C1FE" transform="translate(113,81)"/>
<path d="M0 0 C1.45922693 0.11409593 2.91740598 0.24165544 4.375 0.375 C5.59316406 0.47941406 5.59316406 0.47941406 6.8359375 0.5859375 C9 1 9 1 11 3 C11.78922316 5.64706601 12.48786506 8.25445396 13.125 10.9375 C13.30675781 11.66646484 13.48851562 12.39542969 13.67578125 13.14648438 C14.41168435 16.16479369 15 18.88224375 15 22 C11.7 22 8.4 22 5 22 C2.55591476 14.6450086 0.52541447 7.7498635 0 0 Z " fill="#086FFE" transform="translate(38,133)"/>
<path d="M0 0 C1.51449395 2.43095695 2.61835313 4.73005939 3.5234375 7.4453125 C0.96356871 8.2875725 -1.59895265 9.11929801 -4.1640625 9.9453125 C-4.88529297 10.18378906 -5.60652344 10.42226563 -6.34960938 10.66796875 C-13.85337033 13.06643116 -13.85337033 13.06643116 -17.4765625 12.4453125 C-19.27734375 10.9140625 -19.27734375 10.9140625 -20.7890625 8.9453125 C-21.30082031 8.295625 -21.81257813 7.6459375 -22.33984375 6.9765625 C-22.71496094 6.47125 -23.09007813 5.9659375 -23.4765625 5.4453125 C-20.32270295 2.29145295 -16.32914983 1.7335244 -12.1015625 0.5703125 C-11.23789063 0.30734375 -10.37421875 0.044375 -9.484375 -0.2265625 C-3.13793927 -1.96987355 -3.13793927 -1.96987355 0 0 Z " fill="#93C1FE" transform="translate(111.4765625,42.5546875)"/>
<path d="M0 0 C5.078125 2.83203125 5.078125 2.83203125 7 4 C7.74121094 4.40605469 8.48242188 4.81210938 9.24609375 5.23046875 C11 7 11 7 11.20703125 10.03125 C11.07683594 11.1759375 10.94664062 12.320625 10.8125 13.5 C10.69519531 14.6446875 10.57789063 15.789375 10.45703125 16.96875 C10 20 10 20 9 23 C5.47761953 21.43632643 2.72876006 19.30504111 -0.25 16.875 C-1.14203125 16.15054687 -2.0340625 15.42609375 -2.953125 14.6796875 C-3.62859375 14.12539062 -4.3040625 13.57109375 -5 13 C-4.35780498 11.01964979 -3.71114356 9.04074744 -3.0625 7.0625 C-2.70285156 5.96035156 -2.34320313 4.85820312 -1.97265625 3.72265625 C-1 1 -1 1 0 0 Z " fill="#086FFE" transform="translate(150,241)"/>
<path d="M0 0 C-3.08390023 19.08390023 -3.08390023 19.08390023 -6 22 C-9.3 22 -12.6 22 -16 22 C-14.35 15.4 -12.7 8.8 -11 2 C-3 0 -3 0 0 0 Z " fill="#0150BA" transform="translate(319,133)"/>
<path d="M0 0 C-0.99 5.28 -1.98 10.56 -3 16 C-7.29 16.66 -11.58 17.32 -16 18 C-16.09038099 12.84828377 -15.84681133 8.08086796 -15 3 C-13.25531628 2.29911844 -11.50398839 1.61475991 -9.75 0.9375 C-8.77546875 0.55464844 -7.8009375 0.17179687 -6.796875 -0.22265625 C-4 -1 -4 -1 0 0 Z " fill="#0150BA" transform="translate(282,122)"/>
<path d="M0 0 C4.08358804 6.43474479 4.08358804 6.43474479 3.71435547 8.93164062 C2.92115892 11.22827806 2.06049714 12.31331679 0.34765625 14.015625 C-0.44608398 14.80839844 -0.44608398 14.80839844 -1.25585938 15.6171875 C-1.81080078 16.15601563 -2.36574219 16.69484375 -2.9375 17.25 C-3.48857422 17.80429687 -4.03964844 18.35859375 -4.60742188 18.9296875 C-8.73287408 23 -8.73287408 23 -11 23 C-11.99 19.37 -12.98 15.74 -14 12 C-12.04761147 9.99387601 -10.08862178 7.99507567 -8.125 6 C-7.29162109 5.14148438 -7.29162109 5.14148438 -6.44140625 4.265625 C-2.2265625 0 -2.2265625 0 0 0 Z " fill="#0150BB" transform="translate(234,255)"/>
<path d="M0 0 C4.92598985 4.12174661 9.50412022 8.41236757 14 13 C12.68 16.3 11.36 19.6 10 23 C5.93973179 20.96986589 3.34542624 18.57604446 0.25 15.375 C-0.25660156 14.859375 -0.76320313 14.34375 -1.28515625 13.8125 C-2.52803902 12.54616661 -3.76465276 11.2736856 -5 10 C-3.35 6.7 -1.7 3.4 0 0 Z " fill="#076FFE" transform="translate(124,254)"/>
<path d="M0 0 C7.08703739 0.54515672 13.32796106 2.60918605 20 5 C18.69791204 7.02048131 17.36011609 9.01811655 16 11 C15.62617188 11.59554687 15.25234375 12.19109375 14.8671875 12.8046875 C13 14 13 14 9.27734375 13.48828125 C7.82594592 13.11445651 6.37931913 12.72171657 4.9375 12.3125 C4.20466797 12.12494141 3.47183594 11.93738281 2.71679688 11.74414062 C-2.70453477 10.29546523 -2.70453477 10.29546523 -5 8 C-3.35 5.36 -1.7 2.72 0 0 Z " fill="#93C1FE" transform="translate(241,52)"/>
<path d="M0 0 C2.5 2.25 2.5 2.25 5 5 C5 9.17278526 4.98670191 9.52012361 2.48046875 12.41796875 C1.68866211 13.33932617 1.68866211 13.33932617 0.88085938 14.27929688 C0.32205078 14.90900391 -0.23675781 15.53871094 -0.8125 16.1875 C-1.35970703 16.82880859 -1.90691406 17.47011719 -2.47070312 18.13085938 C-6.59493583 22.86497861 -6.59493583 22.86497861 -10 24 C-11.32 21.36 -12.64 18.72 -14 16 C-13.32453125 15.26394531 -12.6490625 14.52789062 -11.953125 13.76953125 C-11.05200228 12.78392827 -10.15096517 11.79824701 -9.25 10.8125 C-8.36828125 9.84957031 -7.4865625 8.88664062 -6.578125 7.89453125 C-4.29020637 5.32582261 -2.11918393 2.70839628 0 0 Z " fill="#0150BA" transform="translate(262,259)"/>
<path d="M0 0 C2.06160043 2.38513626 3.67065185 4.69135022 5.140625 7.4765625 C2.72910943 8.51135463 0.31268031 9.5294997 -2.109375 10.5390625 C-2.79128906 10.83361328 -3.47320312 11.12816406 -4.17578125 11.43164062 C-7.86340143 12.95323148 -10.07251357 13.80665846 -13.859375 12.4765625 C-15.78125 11.06640625 -15.78125 11.06640625 -17.609375 9.4140625 C-18.22296875 8.86621094 -18.8365625 8.31835938 -19.46875 7.75390625 C-19.92765625 7.33238281 -20.3865625 6.91085938 -20.859375 6.4765625 C-19.12450077 3.00681403 -15.0813869 2.38132887 -11.609375 1.1015625 C-10.46275391 0.63556641 -10.46275391 0.63556641 -9.29296875 0.16015625 C-3.61789297 -1.92756593 -3.61789297 -1.92756593 0 0 Z " fill="#93C1FE" transform="translate(104.859375,70.5234375)"/>
<path d="M0 0 C3.51590594 1.30218739 5.21467435 3.37305835 7.49609375 6.26953125 C10.32853943 9.52868303 13.69809364 12.23065918 17 15 C16.34 17.97 15.68 20.94 15 24 C11.57554017 22.28777008 10.12155263 21.33056393 7.625 18.6875 C5.40937858 16.39087736 3.19449471 14.286222 0.6875 12.3125 C-1.7411467 10.22273423 -2.90638777 8.95275303 -4 6 C-2.68 4.02 -1.36 2.04 0 0 Z " fill="#0770FE" transform="translate(111,277)"/>
<path d="M0 0 C5.42706755 2.0279078 10.39560116 4.32467113 14 9 C14.47512108 13.18210975 13.91987583 16.91091693 13 21 C9.0691648 21 7.99680069 19.66253629 5 17.1875 C4.13375 16.47980469 3.2675 15.77210938 2.375 15.04296875 C1.59125 14.36878906 0.8075 13.69460938 0 13 C-0.61359375 12.51402344 -1.2271875 12.02804687 -1.859375 11.52734375 C-3 10 -3 10 -2.890625 7.7734375 C-2.67921875 6.98195313 -2.4678125 6.19046875 -2.25 5.375 C-2.04890625 4.57835937 -1.8478125 3.78171875 -1.640625 2.9609375 C-1 1 -1 1 0 0 Z " fill="#086FFE" transform="translate(144,257)"/>
<path d="M0 0 C3.3 0 6.6 0 10 0 C11.03411477 2.74564964 12.05251157 5.4954861 13.0625 8.25 C13.35705078 9.02730469 13.65160156 9.80460938 13.95507812 10.60546875 C14.22900391 11.35957031 14.50292969 12.11367187 14.78515625 12.890625 C15.04176025 13.58188477 15.29836426 14.27314453 15.56274414 14.98535156 C16.06952056 17.32031471 15.74214139 18.75375603 15 21 C11.04 21.495 11.04 21.495 7 22 C5.82828244 18.71010914 4.66348912 15.41780898 3.5 12.125 C3.16613281 11.18785156 2.83226562 10.25070313 2.48828125 9.28515625 C2.17246094 8.38925781 1.85664062 7.49335938 1.53125 6.5703125 C1.23798828 5.74289551 0.94472656 4.91547852 0.64257812 4.06298828 C0 2 0 2 0 0 Z " fill="#086FFE" transform="translate(32,158)"/>
<path d="M0 0 C3.63 0.66 7.26 1.32 11 2 C13.08468172 7.96977039 14.72217183 13.80744808 16 20 C12.37 20 8.74 20 5 20 C0.59225513 6.3667426 0.59225513 6.3667426 0 0 Z " fill="#086FFE" transform="translate(51,135)"/>
<path d="M0 0 C1.15628906 0.74056641 1.15628906 0.74056641 2.3359375 1.49609375 C3.33882812 2.13675781 4.34171875 2.77742188 5.375 3.4375 C6.37273437 4.07558594 7.37046875 4.71367187 8.3984375 5.37109375 C10.85830521 6.96899211 10.85830521 6.96899211 13 8 C13 12.62 13 17.24 13 22 C2.01419558 17.60567823 2.01419558 17.60567823 -2 13 C-2.62236613 8.78706006 -2.10482788 5.09626245 -1 1 C-0.67 0.67 -0.34 0.34 0 0 Z " fill="#076FFE" transform="translate(161,269)"/>
<path d="M0 0 C1.01573289 3.04719867 1.0097124 3.98833004 0.44140625 7.01171875 C0.30283203 7.76904297 0.16425781 8.52636719 0.02148438 9.30664062 C-0.20571289 10.48516602 -0.20571289 10.48516602 -0.4375 11.6875 C-0.58509766 12.48478516 -0.73269531 13.28207031 -0.88476562 14.10351562 C-1.24984964 16.07025852 -1.62405289 18.03530467 -2 20 C-5.63 20.66 -9.26 21.32 -13 22 C-12.34 16.06 -11.68 10.12 -11 4 C-5.555 2.02 -5.555 2.02 0 0 Z " fill="#0150BA" transform="translate(295,115)"/>
<path d="M0 0 C7.8822202 0.51599184 15.34458305 2.0921453 23 4 C21.87548273 6.9719385 20.77706209 9.33440687 19 12 C11.90593106 11.41523944 4.98436101 10.36766005 -2 9 C-1.125 2.25 -1.125 2.25 0 0 Z " fill="#93C1FE" transform="translate(228,25)"/>
<path d="M0 0 C1.48030272 0.81042836 2.95921142 1.62340348 4.4375 2.4375 C5.67306641 3.11619141 5.67306641 3.11619141 6.93359375 3.80859375 C9 5 9 5 10 6 C10.07325168 8.86267567 10.09238205 11.700719 10.0625 14.5625 C10.05798828 15.36880859 10.05347656 16.17511719 10.04882812 17.00585938 C10.03700518 19.00393756 10.01906914 21.00197783 10 23 C6.6476699 21.74361009 3.69597385 20.31266112 0.6875 18.375 C-0.00988281 17.92898438 -0.70726562 17.48296875 -1.42578125 17.0234375 C-1.94527344 16.68570312 -2.46476563 16.34796875 -3 16 C-2.69177379 13.7077546 -2.37829126 11.41621545 -2.0625 9.125 C-1.88847656 7.84882813 -1.71445313 6.57265625 -1.53515625 5.2578125 C-1 2 -1 2 0 0 Z " fill="#076FFE" transform="translate(164,251)"/>
<path d="M0 0 C5 6.66666667 5 6.66666667 5 10 C2.77518771 10.70146314 0.54492632 11.38565954 -1.6875 12.0625 C-2.92886719 12.44535156 -4.17023438 12.82820313 -5.44921875 13.22265625 C-8.90357911 13.97889136 -10.71158587 14.19262907 -14 13 C-16.11773457 11.20646183 -17.36331582 9.29135785 -19 7 C-19 6.34 -19 5.68 -19 5 C-12.73 3.35 -6.46 1.7 0 0 Z " fill="#93C1FE" transform="translate(116,52)"/>
<path d="M0 0 C3 1 3 1 4.16796875 3.06640625 C5.11197917 5.37760417 6.05598958 7.68880208 7 10 C3.04 13.96 -0.92 17.92 -5 22 C-7.52820796 20.73589602 -7.68844637 19.84266599 -8.6875 17.25 C-9.09548828 16.23679687 -9.09548828 16.23679687 -9.51171875 15.203125 C-10.13997598 12.36842837 -9.95227899 10.74959836 -9 8 C-6.93359375 5.76171875 -6.93359375 5.76171875 -4.4375 3.6875 C-3.61121094 2.99011719 -2.78492188 2.29273438 -1.93359375 1.57421875 C-1.29550781 1.05472656 -0.65742188 0.53523437 0 0 Z " fill="#0150BA" transform="translate(225,243)"/>
<path d="M0 0 C1.81883009 2.3832946 3 3.95818337 3 7 C-0.24494693 8.0373997 -3.49659404 9.05197239 -6.75 10.0625 C-7.67039062 10.35705078 -8.59078125 10.65160156 -9.5390625 10.95507812 C-10.42851563 11.22900391 -11.31796875 11.50292969 -12.234375 11.78515625 C-13.05131836 12.04176025 -13.86826172 12.29836426 -14.70996094 12.56274414 C-17.22395377 13.04276132 -18.62397237 12.91422627 -21 12 C-24 8.67857143 -24 8.67857143 -24 6 C-20.94131492 4.98806371 -17.87750729 3.9926063 -14.8125 3 C-13.94818359 2.71382812 -13.08386719 2.42765625 -12.19335938 2.1328125 C-11.35224609 1.86210938 -10.51113281 1.59140625 -9.64453125 1.3125 C-8.87471924 1.06113281 -8.10490723 0.80976562 -7.31176758 0.55078125 C-4.74723298 -0.06022203 -2.62558472 -0.26048891 0 0 Z " fill="#93C1FE" transform="translate(105,32)"/>
<path d="M0 0 C-0.14053872 2.62538284 -0.28718947 5.25017427 -0.4375 7.875 C-0.47681641 8.62136719 -0.51613281 9.36773437 -0.55664062 10.13671875 C-0.88671875 15.7734375 -0.88671875 15.7734375 -2 18 C-3.7421875 18.8515625 -3.7421875 18.8515625 -5.875 19.625 C-6.57367188 19.88539062 -7.27234375 20.14578125 -7.9921875 20.4140625 C-10 21 -10 21 -13 21 C-13.02701408 18.89590361 -13.04640223 16.79170822 -13.0625 14.6875 C-13.07410156 13.51574219 -13.08570313 12.34398438 -13.09765625 11.13671875 C-13 8 -13 8 -12 5 C-10.0390625 3.61328125 -10.0390625 3.61328125 -7.625 2.3125 C-6.83351563 1.87550781 -6.04203125 1.43851562 -5.2265625 0.98828125 C-3 0 -3 0 0 0 Z " fill="#0150BA" transform="translate(298,95)"/>
<path d="M0 0 C2.62728858 0.61642534 5.25153582 1.24267787 7.875 1.875 C8.62136719 2.04902344 9.36773437 2.22304687 10.13671875 2.40234375 C15.7734375 3.7734375 15.7734375 3.7734375 18 6 C15.36 8.97 12.72 11.94 10 15 C4.86795032 13.49459876 -0.02896099 11.9884156 -5 10 C-3.35 6.7 -1.7 3.4 0 0 Z " fill="#93C1FE" transform="translate(234,63)"/>
<path d="M0 0 C-0.58359075 8.31616812 -2.73799414 16.01459326 -5 24 C-7.97 24 -10.94 24 -14 24 C-13.37851697 21.29081668 -12.75293439 18.58268873 -12.125 15.875 C-11.95097656 15.11445313 -11.77695312 14.35390625 -11.59765625 13.5703125 C-10.60201572 9.29274576 -9.47028611 5.14594191 -8 1 C-2.25 0 -2.25 0 0 0 Z " fill="#0150BA" transform="translate(330,131)"/>
<path d="M0 0 C1.31896465 0.92838287 2.62998689 1.86805732 3.9375 2.8125 C4.66839844 3.33457031 5.39929688 3.85664062 6.15234375 4.39453125 C8 6 8 6 9 9 C7.28133783 10.0384211 5.54955402 11.05514635 3.8125 12.0625 C2.84957031 12.63097656 1.88664062 13.19945313 0.89453125 13.78515625 C-2.43147372 15.18109086 -3.63806608 15.16374636 -7 14 C-9.45703125 12.80859375 -9.45703125 12.80859375 -11.8125 11.4375 C-12.60269531 10.98246094 -13.39289063 10.52742188 -14.20703125 10.05859375 C-14.79871094 9.70925781 -15.39039062 9.35992187 -16 9 C-13.32920269 5.7892581 -10.07806613 4.49022748 -6.3125 2.8125 C-5.13300781 2.28269531 -3.95351562 1.75289063 -2.73828125 1.20703125 C-1.83464844 0.80871094 -0.93101563 0.41039063 0 0 Z " fill="#93C1FE" transform="translate(81,77)"/>
<path d="M0 0 C-0.62275451 6.60119775 -2.16727812 12.62531521 -4 19 C-7.63 19 -11.26 19 -15 19 C-14.46356377 16.2009417 -13.89763228 13.41390635 -13.3125 10.625 C-13.16361328 9.8309375 -13.01472656 9.036875 -12.86132812 8.21875 C-12.38837268 6.03017186 -11.90304573 4.04971175 -11 2 C-7.39074935 -0.26734977 -4.20238848 -0.19545993 0 0 Z " fill="#0150BA" transform="translate(305,136)"/>
<path d="M0 0 C0.7734375 0.61617188 1.546875 1.23234375 2.34375 1.8671875 C3.01019531 2.37378906 3.67664063 2.88039063 4.36328125 3.40234375 C4.95496094 3.90636719 5.54664062 4.41039063 6.15625 4.9296875 C6.76082031 5.43628906 7.36539063 5.94289063 7.98828125 6.46484375 C9.34375 7.8671875 9.34375 7.8671875 9.34375 9.8671875 C3.35097022 13.82242216 3.35097022 13.82242216 -0.46875 13.9921875 C-5.27082238 12.29733842 -12.2853846 9.60891831 -14.65625 4.8671875 C-12.77544745 3.77830181 -10.87585984 2.72181145 -8.96875 1.6796875 C-7.91300781 1.08800781 -6.85726562 0.49632813 -5.76953125 -0.11328125 C-2.65625 -1.1328125 -2.65625 -1.1328125 0 0 Z " fill="#93C1FE" transform="translate(94.65625,88.1328125)"/>
<path d="M0 0 C0.09289153 5.29481709 -0.23458697 9.64210878 -1 15 C-8.425 17.475 -8.425 17.475 -16 20 C-16.43891785 12.27504579 -16.43891785 12.27504579 -15 8 C-11.17531121 4.58879108 -5.33898868 0 0 0 Z " fill="#0150BA" transform="translate(283,103)"/>
<path d="M0 0 C2.91517292 1.07401108 4.77810176 1.77810176 7 4 C6.43993505 8.47822896 3.68525816 11.68159485 1.125 15.25 C0.67769531 15.8996875 0.23039062 16.549375 -0.23046875 17.21875 C-1.40778906 18.87186052 -2.69747608 20.44362957 -4 22 C-4.99 22 -5.98 22 -7 22 C-9.1875 19.5 -9.1875 19.5 -11 17 C-9.52869627 12.6426774 -7.16919385 9.28065866 -4.375 5.6875 C-3.95476562 5.13771484 -3.53453125 4.58792969 -3.1015625 4.02148438 C-2.07279961 2.67707832 -1.0370991 1.33798587 0 0 Z " fill="#0150BA" transform="translate(275,241)"/>
<path d="M0 0 C3.86519827 1.28839942 4.97970349 3.14112689 7.5 6.3125 C8.66015625 7.76076172 8.66015625 7.76076172 9.84375 9.23828125 C11.58931292 11.47399318 13.31124721 13.72126627 15 16 C13.68 18.31 12.36 20.62 11 23 C5.03739811 18.17917294 0.03320206 12.77505724 -5 7 C-3.64062915 4.1394109 -2.35479531 2.14072301 0 0 Z " fill="#076FFE" transform="translate(95,259)"/>
<path d="M0 0 C9.625 0.875 9.625 0.875 13 2 C13.99 6.95 14.98 11.9 16 17 C12.04 17 8.08 17 4 17 C2.68 11.39 1.36 5.78 0 0 Z " fill="#086FFE" transform="translate(65,138)"/>
<path d="M0 0 C2.64 5.94 5.28 11.88 8 18 C4.81237635 20.12508244 2.73487777 20.5020163 -1 21 C-2.34277732 18.2336466 -3.67255228 15.46123789 -5 12.6875 C-5.57234375 11.50897461 -5.57234375 11.50897461 -6.15625 10.30664062 C-6.5171875 9.54931641 -6.878125 8.79199219 -7.25 8.01171875 C-7.58515625 7.31522217 -7.9203125 6.61872559 -8.265625 5.90112305 C-9 4 -9 4 -9 1 C-5.72921858 0.03087958 -3.60964568 0 0 0 Z " fill="#086FFE" transform="translate(50,181)"/>
<path d="M0 0 C3.295419 1.54195589 5.18650837 2.75480445 7 6 C6.64893844 10.08671668 4.14533945 12.6668663 1.625 15.75 C0.83351562 16.73484375 0.04203125 17.7196875 -0.7734375 18.734375 C-1.50820312 19.48203125 -2.24296875 20.2296875 -3 21 C-3.99 21 -4.98 21 -6 21 C-9.3203125 15.921875 -9.3203125 15.921875 -10 14 C-8.82054353 10.40265776 -6.24246172 7.65204985 -3.875 4.75 C-3.15054688 3.85796875 -2.42609375 2.9659375 -1.6796875 2.046875 C-0.84824219 1.03367188 -0.84824219 1.03367188 0 0 Z " fill="#0150BA" transform="translate(245,240)"/>
<path d="M0 0 C3.93313346 1.31104449 5.36757006 3.82495822 7.6875 7.0625 C8.10322266 7.63033203 8.51894531 8.19816406 8.94726562 8.78320312 C9.97140082 10.18403173 10.98657535 11.59140348 12 13 C10.58208437 15.93446886 9.01667393 18.43332409 7 21 C2.79467528 19.47605205 0.74995834 16.3847135 -1.75 12.875 C-2.36681641 12.03001953 -2.36681641 12.03001953 -2.99609375 11.16796875 C-4.00476085 9.78398366 -5.00339286 8.39269459 -6 7 C-4.46564493 3.70625112 -3.21115194 1.84884506 0 0 Z " fill="#086FFE" transform="translate(90,233)"/>
<path d="M0 0 C0.66 2.64 1.32 5.28 2 8 C-2.01139468 9.22085925 -6.02914396 10.28616641 -10.125 11.1875 C-11.33542969 11.45626953 -11.33542969 11.45626953 -12.5703125 11.73046875 C-15.34645215 12.03843279 -17.34022242 11.85508924 -20 11 C-21.8125 7.9375 -21.8125 7.9375 -23 5 C-18.47911352 3.38539768 -13.95529239 2.28093056 -9.25 1.375 C-8.57839844 1.2409375 -7.90679687 1.106875 -7.21484375 0.96875 C-2.28212691 0 -2.28212691 0 0 0 Z " fill="#93C1FE" transform="translate(130,26)"/>
<path d="M0 0 C7.26 0.66 14.52 1.32 22 2 C21.01 4.97 20.02 7.94 19 11 C16.79142945 10.85780436 14.58315013 10.71108153 12.375 10.5625 C11.14523438 10.48128906 9.91546875 10.40007813 8.6484375 10.31640625 C5.38467612 10.03336056 2.22056141 9.58961047 -1 9 C-0.67 6.03 -0.34 3.06 0 0 Z " fill="#93C1FE" transform="translate(204,22)"/>
<path d="M0 0 C3.04951395 1.52475697 5.36399506 2.92885326 8 5 C6.24933204 8.88609811 3.81675994 12.27812258 1.375 15.75 C0.95476562 16.35199219 0.53453125 16.95398438 0.1015625 17.57421875 C-0.92993137 19.05113043 -1.96464579 20.52579194 -3 22 C-6.50944037 19.41409657 -7.9957983 18.0084034 -10 14 C-6.7 9.38 -3.4 4.76 0 0 Z " fill="#0150BA" transform="translate(266,233)"/>
<path d="M0 0 C1.17133058 2.45620851 2.33721722 4.91474917 3.5 7.375 C3.83386719 8.07367188 4.16773437 8.77234375 4.51171875 9.4921875 C7 14.7734375 7 14.7734375 7 17 C4.03 17.66 1.06 18.32 -2 19 C-3.33819498 16.3773768 -4.6707151 13.75213401 -6 11.125 C-6.3815625 10.37863281 -6.763125 9.63226563 -7.15625 8.86328125 C-7.5171875 8.14785156 -7.878125 7.43242187 -8.25 6.6953125 C-8.58515625 6.03547363 -8.9203125 5.37563477 -9.265625 4.69580078 C-10 3 -10 3 -10 1 C-6.61376074 -0.04191977 -3.52573365 -0.03863818 0 0 Z " fill="#086FFE" transform="translate(62,179)"/>
<path d="M0 0 C5.17226615 4.6873662 8.98925493 10.31728181 13 16 C11.1875 19 11.1875 19 9 22 C8.01 22 7.02 22 6 22 C4.15003783 19.9549939 2.5126051 17.95392387 0.875 15.75 C0.41996094 15.16347656 -0.03507812 14.57695312 -0.50390625 13.97265625 C-4.62034676 8.53700038 -4.62034676 8.53700038 -5 5 C-2.5625 2.25 -2.5625 2.25 0 0 Z " fill="#076FFE" transform="translate(81,240)"/>
<path d="M0 0 C3.63 0 7.26 0 11 0 C11.83719383 2.29032311 12.6698929 4.58210957 13.5 6.875 C13.73847656 7.52597656 13.97695312 8.17695313 14.22265625 8.84765625 C16 13.7734375 16 13.7734375 16 16 C12.7 16.66 9.4 17.32 6 18 C4.99600476 15.37646482 3.99665555 12.75132205 3 10.125 C2.57074219 9.00544922 2.57074219 9.00544922 2.1328125 7.86328125 C0 2.2265625 0 2.2265625 0 0 Z " fill="#086FFE" transform="translate(57,158)"/>
<path d="M0 0 C2.91985181 0.68088981 5.35122304 1.58101234 8 3 C6.6486755 7.66311976 4.74207024 11.33319014 2.0625 15.375 C1.37285156 16.43460938 0.68320312 17.49421875 -0.02734375 18.5859375 C-0.67832031 19.38257813 -1.32929688 20.17921875 -2 21 C-5 21 -5 21 -7.25 19.25 C-9 17 -9 17 -8.86328125 15.28125 C-7.62993347 12.02208664 -5.79960852 9.17662997 -3.9375 6.25 C-3.56044922 5.64800781 -3.18339844 5.04601562 -2.79492188 4.42578125 C-1.86806837 2.94750857 -0.93467611 1.47333911 0 0 Z " fill="#0150BA" transform="translate(287,222)"/>
<path d="M0 0 C2.79337508 3.4203326 5.41565861 6.89389738 7.875 10.5625 C8.51179688 11.49191406 9.14859375 12.42132813 9.8046875 13.37890625 C11 16 11 16 10.5078125 18.21484375 C8.5963348 20.47791449 6.79246148 21.11817006 4 22 C2.34990683 19.56528902 0.70481602 17.12744835 -0.9375 14.6875 C-1.64036133 13.65206055 -1.64036133 13.65206055 -2.35742188 12.59570312 C-2.80537109 11.92861328 -3.25332031 11.26152344 -3.71484375 10.57421875 C-4.33540649 9.65515747 -4.33540649 9.65515747 -4.96850586 8.7175293 C-6 7 -6 7 -7 4 C-4.69 2.68 -2.38 1.36 0 0 Z " fill="#0770FE" transform="translate(69,221)"/>
<path d="M0 0 C2.97 0 5.94 0 9 0 C6.69 6.93 4.38 13.86 2 21 C-0.31 21 -2.62 21 -5 21 C-5.66 20.34 -6.32 19.68 -7 19 C-4.69 12.73 -2.38 6.46 0 0 Z " fill="#0151BA" transform="translate(315,158)"/>
<path d="M0 0 C12.66970387 0.77904328 12.66970387 0.77904328 18 3 C16.94124926 6.40312738 15.99097846 9.01353231 14 12 C8.147205 11.48517081 2.6702363 10.54642808 -3 9 C-2.01 6.03 -1.02 3.06 0 0 Z " fill="#93C1FE" transform="translate(220,48)"/>
<path d="M0 0 C5.75 0.875 5.75 0.875 8 2 C6.6077541 6.62675657 4.70479016 10.64686231 2.375 14.875 C1.74335938 16.02742188 1.11171875 17.17984375 0.4609375 18.3671875 C-0.02117187 19.23601562 -0.50328125 20.10484375 -1 21 C-3.91985181 20.31911019 -6.35122304 19.41898766 -9 18 C-7.65072455 13.46152802 -5.80840652 9.68067754 -3.375 5.625 C-2.74335938 4.56539062 -2.11171875 3.50578125 -1.4609375 2.4140625 C-0.73777344 1.21910156 -0.73777344 1.21910156 0 0 Z " fill="#0150BA" transform="translate(298,202)"/>
<path d="M0 0 C0.66 0 1.32 0 2 0 C4.19921875 2.23046875 4.19921875 2.23046875 6.6875 5.1875 C7.51636719 6.15042969 8.34523438 7.11335937 9.19921875 8.10546875 C11 11 11 11 10.8671875 13.6875 C9.86749241 16.35335359 8.56148324 18.62382985 7 21 C1.75027653 16.89962427 -2.20962911 12.47035213 -6 7 C-5.04882866 5.8274869 -4.08882991 4.66212985 -3.125 3.5 C-2.59132813 2.8503125 -2.05765625 2.200625 -1.5078125 1.53125 C-0.76144531 0.77328125 -0.76144531 0.77328125 0 0 Z " fill="#086FFE" transform="translate(111,240)"/>
<path d="M0 0 C1.60165207 2.47554617 2.94272797 4.81569332 4.25 7.4375 C4.61351563 8.13166016 4.97703125 8.82582031 5.3515625 9.54101562 C8 14.68356438 8 14.68356438 8 17 C2.25 20 2.25 20 0 20 C-1.50787377 17.40011448 -3.00645461 14.79559803 -4.5 12.1875 C-4.92925781 11.44951172 -5.35851563 10.71152344 -5.80078125 9.95117188 C-6.20683594 9.23896484 -6.61289062 8.52675781 -7.03125 7.79296875 C-7.59682617 6.81106567 -7.59682617 6.81106567 -8.17382812 5.80932617 C-9 4 -9 4 -9 1 C-5.55387602 -0.62733632 -3.60744023 -1.40733264 0 0 Z " fill="#086FFE" transform="translate(60,203)"/>
<path d="M0 0 C3.0625 0.125 3.0625 0.125 5.0625 1.125 C4.36187517 5.69236441 2.74979793 9.6949505 1 13.9375 C0.71833984 14.63037109 0.43667969 15.32324219 0.14648438 16.03710938 C-0.54424973 17.73467624 -1.24033728 19.43006312 -1.9375 21.125 C-5.30077963 20.56445339 -7.92862219 19.70658962 -10.9375 18.125 C-9.79468854 15.31123705 -8.64841259 12.49897584 -7.5 9.6875 C-7.17451172 8.88505859 -6.84902344 8.08261719 -6.51367188 7.25585938 C-6.04477539 6.11020508 -6.04477539 6.11020508 -5.56640625 4.94140625 C-5.27838135 4.23443604 -4.99035645 3.52746582 -4.69360352 2.79907227 C-3.42522616 -0.00921432 -3.30293311 0.14055035 0 0 Z " fill="#0150BA" transform="translate(309.9375,180.875)"/>
<path d="M0 0 C0.33 2.97 0.66 5.94 1 9 C-0.87387477 9.3396019 -2.74916697 9.67138691 -4.625 10 C-5.66914063 10.185625 -6.71328125 10.37125 -7.7890625 10.5625 C-10.90574865 10.98715797 -13.85930812 11.07545206 -17 11 C-17.99 8.03 -18.98 5.06 -20 2 C-17.79248152 1.66131223 -15.58394089 1.32928311 -13.375 1 C-12.14523438 0.814375 -10.91546875 0.62875 -9.6484375 0.4375 C-6.3833973 0.04597484 -3.28287549 -0.08080924 0 0 Z " fill="#93C1FE" transform="translate(156,34)"/>
<path d="M0 0 C2.97 0.33 5.94 0.66 9 1 C8.33585919 4.98484488 7.14488176 8.51016972 5.625 12.25 C5.20476562 13.30703125 4.78453125 14.3640625 4.3515625 15.453125 C3 18 3 18 0 19 C-2.36522558 18.07796291 -4.70401807 17.08301035 -7 16 C-6.21292098 13.89411299 -5.42017374 11.79034384 -4.625 9.6875 C-4.18414062 8.51574219 -3.74328125 7.34398437 -3.2890625 6.13671875 C-2 3 -2 3 0 0 Z " fill="#0150BA" transform="translate(295,179)"/>
<path d="M0 0 C0.99 3.3 1.98 6.6 3 10 C-2.61 10.99 -8.22 11.98 -14 13 C-15.65 10.03 -17.3 7.06 -19 4 C-13.10536225 1.76959653 -6.34694881 0 0 0 Z " fill="#93C1FE" transform="translate(138,48)"/>
<path d="M0 0 C6.44070471 -0.10655578 12.62641289 0.03794912 19 1 C18.54177532 4.46941546 18.10868317 7.67395049 17 11 C10.73 10.34 4.46 9.68 -2 9 C-1.34 6.03 -0.68 3.06 0 0 Z " fill="#93C1FE" transform="translate(202,34)"/>
<path d="M0 0 C1.19882813 0.00483398 1.19882813 0.00483398 2.421875 0.00976562 C3.246875 0.01814453 4.071875 0.02652344 4.921875 0.03515625 C5.76234375 0.03966797 6.6028125 0.04417969 7.46875 0.04882812 C9.53648901 0.06057664 11.60419124 0.07851103 13.671875 0.09765625 C13.671875 2.73765625 13.671875 5.37765625 13.671875 8.09765625 C6.64382801 8.95138864 -0.25090569 9.21874936 -7.328125 9.09765625 C-7.658125 6.45765625 -7.988125 3.81765625 -8.328125 1.09765625 C-5.47652109 0.28331482 -2.96186369 -0.02115617 0 0 Z " fill="#93C1FE" transform="translate(164.328125,21.90234375)"/>
<path d="M0 0 C1.61370379 2.0641091 2.96159451 4.02469889 4.3125 6.25 C4.88967773 7.12978516 4.88967773 7.12978516 5.47851562 8.02734375 C6.55078125 9.765625 6.55078125 9.765625 8 13 C7.10557431 16.09649127 5.36203389 17.85269647 3 20 C-1.39458137 18.51534413 -3.05088905 15.18679232 -5.25 11.375 C-5.61351563 10.76398438 -5.97703125 10.15296875 -6.3515625 9.5234375 C-7.24359752 8.02106273 -8.12305829 6.51123449 -9 5 C-4.16129032 0 -4.16129032 0 0 0 Z " fill="#076FFE" transform="translate(81,216)"/>
<path d="M0 0 C0.87890625 6.15234375 0.87890625 6.15234375 1 8 C-0.53701881 9.53701881 -2.11807163 9.32298725 -4.25390625 9.53515625 C-5.10791016 9.62216797 -5.96191406 9.70917969 -6.84179688 9.79882812 C-7.73962891 9.88583984 -8.63746094 9.97285156 -9.5625 10.0625 C-10.46419922 10.15337891 -11.36589844 10.24425781 -12.29492188 10.33789062 C-14.52955509 10.56253629 -16.76473113 10.78176996 -19 11 C-19.99 8.36 -20.98 5.72 -22 3 C-14.69453873 1.28778252 -7.55255396 -0.23601731 0 0 Z " fill="#93C1FE" transform="translate(154,23)"/>
<path d="M0 0 C6.75 0.875 6.75 0.875 9 2 C8.39733215 6.50727647 6.63400206 9.8587963 4.4375 13.8125 C3.9434668 14.7087207 3.9434668 14.7087207 3.43945312 15.62304688 C2.63226733 17.08533998 1.81695083 18.5431399 1 20 C-1.64 18.68 -4.28 17.36 -7 16 C-5.35433477 10.31497465 -2.70967216 5.23318364 0 0 Z " fill="#0150BA" transform="translate(286,198)"/>
<path d="M0 0 C4.68157011 2.16641506 8.7208222 4.98401929 12 9 C12.14415214 13.25248812 11.18006511 16.36655815 9 20 C5.41597305 18.46751951 2.97149866 16.3325399 0.1875 13.625 C-1.02873047 12.46871094 -1.02873047 12.46871094 -2.26953125 11.2890625 C-4 9 -4 9 -3.859375 6.8828125 C-2.75476373 4.46270962 -1.43126576 2.24024205 0 0 Z " fill="#086FFE" transform="translate(130,244)"/>
<path d="M0 0 C0.99 0.33 1.98 0.66 3 1 C4.83657691 5.0404692 5.42338271 7.78184758 4 12 C1.78515625 14.01953125 1.78515625 14.01953125 -0.9375 15.8125 C-1.83339844 16.41707031 -2.72929687 17.02164062 -3.65234375 17.64453125 C-6 19 -6 19 -8 19 C-9.13764351 14.73383684 -10 11.43513689 -10 7 C-7.91796875 5.04296875 -7.91796875 5.04296875 -5.1875 3.1875 C-4.29417969 2.56230469 -3.40085938 1.93710938 -2.48046875 1.29296875 C-1.66191406 0.86628906 -0.84335938 0.43960938 0 0 Z " fill="#0150BA" transform="translate(206,242)"/>
<path d="M0 0 C6.27941176 2.41911765 6.27941176 2.41911765 8 5 C7.64141947 9.44029511 5.84308415 11.91847776 3.0625 15.3125 C2.35222656 16.19550781 1.64195312 17.07851562 0.91015625 17.98828125 C0.27980469 18.65214844 -0.35054687 19.31601563 -1 20 C-1.66 20 -2.32 20 -3 20 C-4.7143618 18.04072937 -6.38405168 16.04119788 -8 14 C-6.6744419 10.37723685 -5.05653045 7.36494652 -2.875 4.1875 C-2.33617187 3.39730469 -1.79734375 2.60710937 -1.2421875 1.79296875 C-0.83226562 1.20128906 -0.42234375 0.60960937 0 0 Z " fill="#0150BA" transform="translate(256,225)"/>
<path d="M0 0 C3.3 0 6.6 0 10 0 C8.7915371 5.94935584 7.25422333 11.36444167 5 17 C1.7 16.67 -1.6 16.34 -5 16 C-4.34309381 12.21760329 -3.279869 8.78158474 -1.9375 5.1875 C-1.57527344 4.21167969 -1.21304687 3.23585937 -0.83984375 2.23046875 C-0.42412109 1.12638672 -0.42412109 1.12638672 0 0 Z " fill="#0150BA" transform="translate(289,158)"/>
<path d="M0 0 C5.23272633 1.63958758 10.15196636 3.38952035 15 6 C13.50374776 9.80864206 11.48155126 11.86359354 8 14 C2.77394294 14 -1.51214651 11.44895558 -6 9 C-4.38617243 5.59787701 -2.41396234 2.89675481 0 0 Z " fill="#93C1FE" transform="translate(244,81)"/>
<path d="M0 0 C0.74958984 0.00451172 1.49917969 0.00902344 2.27148438 0.01367188 C4.11852383 0.02543646 5.96552213 0.04337135 7.8125 0.0625 C7.8125 3.0325 7.8125 6.0025 7.8125 9.0625 C-0.6025 9.5575 -0.6025 9.5575 -9.1875 10.0625 C-11.1875 4.0625 -11.1875 4.0625 -11.1875 1.0625 C-7.42449626 -0.19183458 -3.91539091 -0.04445422 0 0 Z " fill="#93C1FE" transform="translate(169.1875,32.9375)"/>
<path d="M0 0 C6.93 0 13.86 0 21 0 C20.67 2.97 20.34 5.94 20 9 C13.4 8.67 6.8 8.34 0 8 C0 5.36 0 2.72 0 0 Z " fill="#93C1FE" transform="translate(180,22)"/>
<path d="M0 0 C1.64962347 1.98823039 2.63198711 3.86390533 3.671875 6.2265625 C4.01605469 6.98839844 4.36023438 7.75023437 4.71484375 8.53515625 C5.484375 10.7890625 5.484375 10.7890625 5.484375 14.7890625 C2.514375 15.4490625 -0.455625 16.1090625 -3.515625 16.7890625 C-5.825625 11.8390625 -8.135625 6.8890625 -10.515625 1.7890625 C-2.6703869 -2.13355655 -2.6703869 -2.13355655 0 0 Z " fill="#086FFE" transform="translate(74.515625,177.2109375)"/>
<path d="M0 0 C3.88997191 1.49746706 5.46948052 3.70422078 7.75 7.125 C8.67039062 8.49011719 8.67039062 8.49011719 9.609375 9.8828125 C10.06828125 10.58148438 10.5271875 11.28015625 11 12 C9.02 14.64 7.04 17.28 5 20 C1.95359537 17.13279564 -0.78043089 14.16064593 -3.375 10.875 C-3.89835937 10.21242187 -4.42171875 9.54984375 -4.9609375 8.8671875 C-5.30382812 8.25101563 -5.64671875 7.63484375 -6 7 C-4.77065985 3.31197956 -3.06140622 2.27643027 0 0 Z " fill="#086FFE" transform="translate(99,225)"/>
<path d="M0 0 C4.10416164 0.57267372 7.0672135 1.4268854 11 3 C11.33 7.95 11.66 12.9 12 18 C8.37 17.34 4.74 16.68 1 16 C0.21700392 12.0850196 -0.10965159 9.10108218 -0.0625 5.1875 C-0.05347656 4.21167969 -0.04445313 3.23585938 -0.03515625 2.23046875 C-0.02355469 1.49441406 -0.01195313 0.75835937 0 0 Z " fill="#076FFE" transform="translate(79,122)"/>
<path d="M0 0 C5.61 0.66 11.22 1.32 17 2 C15.73046875 8.93359375 15.73046875 8.93359375 15 11 C11.21286807 12.26237731 8.74348067 11.67558873 4.8125 11.0625 C3.54019531 10.86785156 2.26789063 10.67320313 0.95703125 10.47265625 C-0.01878906 10.31667969 -0.99460938 10.16070312 -2 10 C-1.34 6.7 -0.68 3.4 0 0 Z " fill="#93C1FE" transform="translate(200,45)"/>
<path d="M0 0 C-1.32 5.61 -2.64 11.22 -4 17 C-7.3 17 -10.6 17 -14 17 C-13.39891424 11.34979382 -11.92471317 6.33835539 -10 1 C-6.56484998 0.37542727 -3.50935186 0 0 0 Z " fill="#0150BB" transform="translate(292,138)"/>
<path d="M0 0 C3 5.625 3 5.625 3 9 C-1.95 10.32 -6.9 11.64 -12 13 C-18 6.25 -18 6.25 -18 4 C-15.75194998 3.32678716 -13.50147776 2.66165877 -11.25 2 C-9.99703125 1.62875 -8.7440625 1.2575 -7.453125 0.875 C-4 0 -4 0 0 0 Z " fill="#93C1FE" transform="translate(124,64)"/>
<path d="M0 0 C3.82097239 0.53069061 6.06171403 1.49701566 9 4 C7.62712658 7.69876091 5.93644547 10.9514476 3.875 14.3125 C3.33617187 15.19550781 2.79734375 16.07851562 2.2421875 16.98828125 C1.62730469 17.98408203 1.62730469 17.98408203 1 19 C-2.32759923 17.44805246 -4.48580485 15.69378051 -7 13 C-5.35821735 8.22390502 -2.73453298 4.20617096 0 0 Z " fill="#0150BA" transform="translate(266,210)"/>
<path d="M0 0 C2.97 0.99 5.94 1.98 9 3 C8.40165275 7.14298667 6.99335715 10.18194377 4.9375 13.8125 C4.38964844 14.78832031 3.84179688 15.76414063 3.27734375 16.76953125 C2.85582031 17.50558594 2.43429687 18.24164063 2 19 C-1.07745908 17.78534783 -4.06176804 16.52352768 -7 15 C-5.63408831 11.45756548 -4.09068516 8.07372071 -2.375 4.6875 C-1.70597656 3.36298828 -1.70597656 3.36298828 -1.0234375 2.01171875 C-0.68570312 1.34785156 -0.34796875 0.68398437 0 0 Z " fill="#0150BA" transform="translate(275,193)"/>
<path d="M0 0 C2.95274099 2.95274099 4.05166572 4.92950233 5.6875 8.6875 C6.12449219 9.68136719 6.56148437 10.67523438 7.01171875 11.69921875 C7.33785156 12.45847656 7.66398437 13.21773437 8 14 C5.36 15.65 2.72 17.3 0 19 C-1.231924 17.03558065 -2.46294832 15.07058594 -3.6875 13.1015625 C-4.71577337 11.45510097 -5.76095994 9.81920009 -6.8125 8.1875 C-8 6 -8 6 -8 3 C-5.36 2.01 -2.72 1.02 0 0 Z " fill="#086FFE" transform="translate(81,193)"/>
<path d="M0 0 C4.455 0.99 4.455 0.99 9 2 C8.37183502 5.94949704 7.1354471 9.19892028 5.4375 12.8125 C4.98246094 13.78832031 4.52742188 14.76414063 4.05859375 15.76953125 C3.70925781 16.50558594 3.35992187 17.24164063 3 18 C0.03 17.01 -2.94 16.02 -6 15 C-5.39644592 11.14974121 -4.23227397 8.13898841 -2.4375 4.6875 C-1.98246094 3.80449219 -1.52742188 2.92148438 -1.05859375 2.01171875 C-0.53458984 1.01591797 -0.53458984 1.01591797 0 0 Z " fill="#0150BA" transform="translate(283,176)"/>
<path d="M0 0 C0.33 2.97 0.66 5.94 1 9 C-1.9615696 10.4807848 -4.83506295 10.35314037 -8.125 10.5625 C-9.40632812 10.64628906 -10.68765625 10.73007812 -12.0078125 10.81640625 C-12.99523437 10.87699219 -13.98265625 10.93757813 -15 11 C-15.99 8.03 -16.98 5.06 -18 2 C-11.81382652 0.62529478 -6.32844017 -0.23438667 0 0 Z " fill="#93C1FE" transform="translate(158,46)"/>
<path d="M0 0 C5 5 5 5 6.12109375 6.953125 C5.91641369 10.4128783 3.38213771 12.40263754 1.0625 14.75 C0.34030273 15.50990234 0.34030273 15.50990234 -0.39648438 16.28515625 C-1.58653954 17.53412504 -2.79186613 18.7685103 -4 20 C-6.90212286 16.61418999 -8.29395475 14.26511313 -10 10 C-6.7 6.7 -3.4 3.4 0 0 Z " fill="#0150BA" transform="translate(238,230)"/>
<path d="M0 0 C3.15419002 1.36097458 4.12119956 3.56455503 5.859375 6.47265625 C6.77976562 7.99052734 6.77976562 7.99052734 7.71875 9.5390625 C8.17765625 10.32152344 8.6365625 11.10398438 9.109375 11.91015625 C6.859375 14.41015625 6.859375 14.41015625 4.109375 16.91015625 C2.789375 16.91015625 1.469375 16.91015625 0.109375 16.91015625 C-2.03125 14.28515625 -2.03125 14.28515625 -4.140625 10.91015625 C-4.84703125 9.79640625 -5.5534375 8.68265625 -6.28125 7.53515625 C-6.81234375 6.66890625 -7.3434375 5.80265625 -7.890625 4.91015625 C-3.00085821 -0.14260277 -3.00085821 -0.14260277 0 0 Z " fill="#086FFE" transform="translate(89.890625,210.08984375)"/>
<path d="M0 0 C1.89611434 0.14213297 3.79188394 0.28886907 5.6875 0.4375 C6.74324219 0.51871094 7.79898438 0.59992187 8.88671875 0.68359375 C11.65086297 0.96451681 14.28945741 1.40156852 17 2 C15.66511872 5.59391114 14.03977277 8.75490696 12 12 C7.03083364 11.48594831 2.70973649 10.76615118 -2 9 C-1.34 6.03 -0.68 3.06 0 0 Z " fill="#93C1FE" transform="translate(215,60)"/>
<path d="M0 0 C3.7840597 1.77453763 6.33164025 3.72172945 9 7 C9.11885975 11.51667045 6.28047152 15.24825653 4 19 C2 19 2 19 0.30859375 17.390625 C-0.30886719 16.68421875 -0.92632812 15.9778125 -1.5625 15.25 C-2.18253906 14.55390625 -2.80257812 13.8578125 -3.44140625 13.140625 C-5.03444689 10.95268948 -5.86065528 9.70114386 -6 7 C-4.78515625 5.078125 -4.78515625 5.078125 -3.0625 3.25 C-2.49660156 2.63640625 -1.93070312 2.0228125 -1.34765625 1.390625 C-0.90292969 0.93171875 -0.45820312 0.4728125 0 0 Z " fill="#086FFE" transform="translate(127,220)"/>
<path d="M0 0 C0.36644578 1.55966592 0.71760862 3.12292651 1.0625 4.6875 C1.25972656 5.55761719 1.45695313 6.42773438 1.66015625 7.32421875 C2.03365865 10.26501348 1.96322982 12.19447626 1 15 C-0.77734375 16.58203125 -0.77734375 16.58203125 -2.9375 17.8125 C-3.64777344 18.23144531 -4.35804688 18.65039062 -5.08984375 19.08203125 C-7 20 -7 20 -9 20 C-9 14.72 -9 9.44 -9 4 C-2.25 0 -2.25 0 0 0 Z " fill="#0150BA" transform="translate(191,235)"/>
<path d="M0 0 C4.85963179 0.60745397 8.7405518 2.72758967 13 5 C10.33246846 8.55670872 7.74798655 11.56380874 4 14 C2.125 13.9375 2.125 13.9375 0 13 C-0.59554687 12.7525 -1.19109375 12.505 -1.8046875 12.25 C-3.54609846 11.5226637 -5.27408736 10.76338443 -7 10 C-5.33248852 6.05860922 -2.77289351 3.2107188 0 0 Z " fill="#93C1FE" transform="translate(235,92)"/>
<path d="M0 0 C3.63 0 7.26 0 11 0 C12.32 4.62 13.64 9.24 15 14 C11.1273408 14.9681648 7.96388638 15.07622858 4 15 C3.32779649 13.06441401 2.66241923 11.12645628 2 9.1875 C1.62875 8.10855469 1.2575 7.02960938 0.875 5.91796875 C0 3 0 3 0 0 Z " fill="#086FFE" transform="translate(71,158)"/>
<path d="M0 0 C3.28653471 1.51686217 6.34270552 3.24385041 9.4375 5.125 C5.72475335 9.6815527 0.64742598 11.69900393 -4.5625 14.125 C-6.8725 12.475 -9.1825 10.825 -11.5625 9.125 C-9.95835779 4.31257336 -5.18884807 0.25311454 0 0 Z " fill="#93C1FE" transform="translate(252.5625,98.875)"/>
<path d="M0 0 C1.32 3.63 2.64 7.26 4 11 C2.37982158 12.33918806 0.75370657 13.6711969 -0.875 15 C-1.77992188 15.7425 -2.68484375 16.485 -3.6171875 17.25 C-6 19 -6 19 -8 19 C-8.66 14.38 -9.32 9.76 -10 5 C-2.25 0 -2.25 0 0 0 Z " fill="#0150BA" transform="translate(203,228)"/>
<path d="M0 0 C5.61 0 11.22 0 17 0 C16.67 3.3 16.34 6.6 16 10 C10.72 9.67 5.44 9.34 0 9 C0 6.03 0 3.06 0 0 Z " fill="#93C1FE" transform="translate(180,45)"/>
<path d="M0 0 C3 6.5 3 6.5 3 11 C-1.30785975 12.35148541 -4.41957592 13 -9 13 C-10.65 9.7 -12.3 6.4 -14 3 C-9.12009933 1.04803973 -5.22219863 0 0 0 Z " fill="#93C1FE" transform="translate(146,71)"/>
<path d="M0 0 C5.28 0 10.56 0 16 0 C16 2.97 16 5.94 16 9 C10.94997778 10.03590199 6.12583611 10.10251672 1 10 C-1.125 3.375 -1.125 3.375 0 0 Z " fill="#93C1FE" transform="translate(161,45)"/>
<path d="M0 0 C3.28788824 3.11016455 5.83735988 6.01618925 8 10 C1.18120498 13.94238024 1.18120498 13.94238024 -2.5625 14.125 C-6.22676169 12.4338023 -9.26762919 9.96859883 -12 7 C-12 6.34 -12 5.68 -12 5 C-8.04 3.35 -4.08 1.7 0 0 Z " fill="#93C1FE" transform="translate(122,92)"/>
<path d="M0 0 C4.29 0 8.58 0 13 0 C10.125 10.75 10.125 10.75 9 13 C7.18674449 12.88648483 5.37436643 12.75887039 3.5625 12.625 C2.55316406 12.55539063 1.54382813 12.48578125 0.50390625 12.4140625 C-0.32238281 12.27742187 -1.14867187 12.14078125 -2 12 C-3.86147549 8.27704902 -1.20204575 3.75038273 0 0 Z " fill="#0150BA" transform="translate(261,158)"/>
<path d="M0 0 C4.84659077 0.59104765 8.60748167 1.97944157 13 4 C13.33 7.63 13.66 11.26 14 15 C12.22625 14.896875 10.4525 14.79375 8.625 14.6875 C7.62726563 14.62949219 6.62953125 14.57148438 5.6015625 14.51171875 C4.74304688 14.34285156 3.88453125 14.17398438 3 14 C0.81005752 10.71508627 0.64722661 9.16904361 0.375 5.3125 C0.30023438 4.31863281 0.22546875 3.32476562 0.1484375 2.30078125 C0.09945312 1.54152344 0.05046875 0.78226562 0 0 Z " fill="#076FFE" transform="translate(92,127)"/>
<path d="M0 0 C4.62 1.32 9.24 2.64 14 4 C14 7.58912412 13.33563446 8.10857029 11 10.6875 C10.01 11.780625 9.02 12.87375 8 14 C4.04 12.68 0.08 11.36 -4 10 C-3 6 -3 6 0 0 Z " fill="#93C1FE" transform="translate(227,75)"/>
<path d="M0 0 C2.55234718 2.45225513 4.31418658 4.86920364 6 8 C6 10 6 10 4.390625 11.65625 C3.68421875 12.2646875 2.9778125 12.873125 2.25 13.5 C1.55390625 14.1084375 0.8578125 14.716875 0.140625 15.34375 C-1.84460792 16.87976963 -3.71872045 17.9723966 -6 19 C-6.5345256 17.75579353 -7.05208611 16.50429064 -7.5625 15.25 C-7.85253906 14.55390625 -8.14257812 13.8578125 -8.44140625 13.140625 C-9.1115493 10.57252435 -9.04453528 9.43724899 -8 7 C-6.15234375 5.078125 -6.15234375 5.078125 -3.9375 3.25 C-3.20402344 2.63640625 -2.47054687 2.0228125 -1.71484375 1.390625 C-1.14894531 0.93171875 -0.58304688 0.4728125 0 0 Z " fill="#0150BA" transform="translate(219,231)"/>
<path d="M0 0 C2.97 1.98 5.94 3.96 9 6 C8.25 16.75 8.25 16.75 6 19 C2.7 16.69 -0.6 14.38 -4 12 C-3.07988583 7.39942914 -1.89559434 4.20327441 0 0 Z " fill="#076FFE" transform="translate(155,227)"/>
<path d="M0 0 C1.98036486 0.97674104 3.95926133 1.95645982 5.9375 2.9375 C7.03964844 3.48277344 8.14179687 4.02804688 9.27734375 4.58984375 C12 6 12 6 13 7 C13.07205511 8.68608966 13.08386068 10.37500659 13.0625 12.0625 C13.05347656 12.98160156 13.04445313 13.90070313 13.03515625 14.84765625 C13.02355469 15.55792969 13.01195313 16.26820312 13 17 C11.20763933 16.52343588 9.41613103 16.04366502 7.625 15.5625 C6.62726563 15.29566406 5.62953125 15.02882813 4.6015625 14.75390625 C2 14 2 14 0 13 C0 8.71 0 4.42 0 0 Z " fill="#076FFE" transform="translate(92,111)"/>
<path d="M0 0 C0.1799928 5.21979128 -0.02905192 9.07262981 -2 14 C-5.63 14.33 -9.26 14.66 -13 15 C-12.67 11.37 -12.34 7.74 -12 4 C-2.25 0 -2.25 0 0 0 Z " fill="#0150BA" transform="translate(264,127)"/>
<path d="M0 0 C3.63 0.33 7.26 0.66 11 1 C11.66 5.29 12.32 9.58 13 14 C9.37 14 5.74 14 2 14 C1.505 11.9271875 1.505 11.9271875 1 9.8125 C0.814375 9.03519531 0.62875 8.25789062 0.4375 7.45703125 C0 5 0 5 0 0 Z " fill="#076FFE" transform="translate(81,141)"/>
<path d="M0 0 C3.79235994 1.48985569 5.80565887 3.58658047 8 7 C8.13289823 11.11984526 4.57337285 14.09670756 2 17 C-1.48872415 15.83709195 -2.09976864 14.86032391 -4.1875 11.9375 C-4.71730469 11.20402344 -5.24710937 10.47054687 -5.79296875 9.71484375 C-6.19128906 9.14894531 -6.58960937 8.58304688 -7 8 C-5.31847927 4.25979502 -3.30960527 2.43865652 0 0 Z " fill="#086FFE" transform="translate(118,209)"/>
<path d="M0 0 C3.44428265 1.44781793 5.36130962 3.27694609 7.75 6.125 C8.36359375 6.84945312 8.9771875 7.57390625 9.609375 8.3203125 C10.29773438 9.15175781 10.29773438 9.15175781 11 10 C9.68 12.64 8.36 15.28 7 18 C3.09224671 16.04612336 1.52377661 14.61107271 -1.25 11.375 C-1.95640625 10.55773437 -2.6628125 9.74046875 -3.390625 8.8984375 C-3.92171875 8.27195313 -4.4528125 7.64546875 -5 7 C-3.35 4.69 -1.7 2.38 0 0 Z " fill="#086FFE" transform="translate(118,231)"/>
<path d="M0 0 C0.99 2.97 1.98 5.94 3 9 C1.43883181 9.33951619 -0.12401338 9.67132544 -1.6875 10 C-2.99267578 10.2784375 -2.99267578 10.2784375 -4.32421875 10.5625 C-6.99617059 10.99937388 -9.303943 11.28235732 -12 11 C-16 6.02702703 -16 6.02702703 -16 3 C-13.89679937 2.49595192 -11.79240209 1.99689492 -9.6875 1.5 C-8.51574219 1.2215625 -7.34398437 0.943125 -6.13671875 0.65625 C-3 0 -3 0 0 0 Z " fill="#93C1FE" transform="translate(142,60)"/>
<path d="M0 0 C3.3 0.33 6.6 0.66 10 1 C11.08644535 5.3457814 10.90680911 5.94960548 9.0625 9.75 C8.68222656 10.54921875 8.30195313 11.3484375 7.91015625 12.171875 C7.60980469 12.77515625 7.30945313 13.3784375 7 14 C3.1936543 13.32829194 -0.35206816 12.27253436 -4 11 C-3.52269162 9.5410574 -3.04308958 8.08286504 -2.5625 6.625 C-2.29566406 5.81289062 -2.02882812 5.00078125 -1.75390625 4.1640625 C-1 2 -1 2 0 0 Z " fill="#0150BA" transform="translate(257,172)"/>
<path d="M0 0 C3.81243153 2.70883293 5.44648311 4.6225669 7 9 C5.71520959 10.50589388 4.42195918 12.00457375 3.125 13.5 C2.40570313 14.3353125 1.68640625 15.170625 0.9453125 16.03125 C0.30335938 16.6809375 -0.33859375 17.330625 -1 18 C-1.66 18 -2.32 18 -3 18 C-6.95683453 11.88489209 -6.95683453 11.88489209 -7.125 8.4375 C-5.4507495 4.80995726 -2.94149313 2.69115329 0 0 Z " fill="#0151BB" transform="translate(229,220)"/>
<path d="M0 0 C1.23556641 0.01740234 1.23556641 0.01740234 2.49609375 0.03515625 C3.32238281 0.04417969 4.14867187 0.05320313 5 0.0625 C5.63808594 0.07410156 6.27617187 0.08570313 6.93359375 0.09765625 C5.9049659 5.54333311 4.68744591 10.21582742 1.93359375 15.09765625 C-1.03640625 14.76765625 -4.00640625 14.43765625 -7.06640625 14.09765625 C-6.42440189 11.95067423 -5.77769879 9.80509672 -5.12890625 7.66015625 C-4.76925781 6.46519531 -4.40960938 5.27023438 -4.0390625 4.0390625 C-2.74635484 0.12978993 -2.74635484 0.12978993 0 0 Z " fill="#0150BA" transform="translate(279.06640625,157.90234375)"/>
<path d="M0 0 C1.58367747 0.14204741 3.16693318 0.28880153 4.75 0.4375 C5.63171875 0.51871094 6.5134375 0.59992188 7.421875 0.68359375 C9.69350452 0.96238465 11.79851823 1.38790577 14 2 C12.62411965 5.70429324 11.08109119 8.53151468 9 12 C3.06 11.01 3.06 11.01 -3 10 C-2.25386143 6.26930717 -1.46826597 3.42595393 0 0 Z " fill="#93C1FE" transform="translate(211,72)"/>
<path d="M0 0 C0.33 3.63 0.66 7.26 1 11 C-2.63 11.33 -6.26 11.66 -10 12 C-14 2.125 -14 2.125 -14 1 C-9.27616037 0.34843591 -4.78025483 -0.11950637 0 0 Z " fill="#93C1FE" transform="translate(162,69)"/>
<path d="M0 0 C3.33557632 2.9905167 5.15083921 5.93184627 7 10 C4.69 11.98 2.38 13.96 0 16 C-5.03440616 13.48279692 -5.746141 12.02783932 -8 7 C-7.625 4.75 -7.625 4.75 -6 3 C-2.875 1.25 -2.875 1.25 0 0 Z " fill="#086FFE" transform="translate(111,197)"/>
<path d="M0 0 C3.63 0 7.26 0 11 0 C14 7.5 14 7.5 14 12 C10.7 12.33 7.4 12.66 4 13 C2.68 8.71 1.36 4.42 0 0 Z " fill="#086FFE" transform="translate(84,158)"/>
<path d="M0 0 C3.3 0.99 6.6 1.98 10 3 C8.68938409 7.23429756 7.05643741 11.07407404 5 15 C0.56909529 13.79157144 -1.98112756 12.48331435 -5 9 C-3.35 6.03 -1.7 3.06 0 0 Z " fill="#0150BA" transform="translate(252,185)"/>
<path d="M0 0 C3.83902629 2.33679861 6.20953589 3.86281109 8 8 C6.88266271 9.50571657 5.75589965 11.00444292 4.625 12.5 C3.99851563 13.3353125 3.37203125 14.170625 2.7265625 15.03125 C1.87191406 16.00578125 1.87191406 16.00578125 1 17 C0.34 17 -0.32 17 -1 17 C-5.94736842 12.05263158 -5.94736842 12.05263158 -6.125 8.5 C-4.59003644 5.08896987 -2.51284777 2.77057575 0 0 Z " fill="#0150BA" transform="translate(238,209)"/>
<path d="M0 0 C0.67119549 1.4562545 1.33681807 2.91507867 2 4.375 C2.556875 5.59316406 2.556875 5.59316406 3.125 6.8359375 C4 9 4 9 4 11 C-0.95 12.485 -0.95 12.485 -6 14 C-7.65 10.04 -9.3 6.08 -11 2 C-7.12315913 0.80712589 -4.08378077 0 0 0 Z " fill="#086FFE" transform="translate(100,172)"/>
<path d="M0 0 C3.3 1.65 6.6 3.3 10 5 C5.17857143 14.375 5.17857143 14.375 1 16 C-0.98 14.35 -2.96 12.7 -5 11 C-4.32902328 6.80639551 -2.1441606 3.59665648 0 0 Z " fill="#0150BB" transform="translate(245,197)"/>
<path d="M0 0 C4.24822374 0.47202486 6.19989709 2.96655518 9 6 C8.01 9.3 7.02 12.6 6 16 C2.41087588 16 1.89142971 15.33563446 -0.6875 13 C-1.31011719 12.443125 -1.93273437 11.88625 -2.57421875 11.3125 C-3.27998047 10.6628125 -3.27998047 10.6628125 -4 10 C-3.43454163 6.04179141 -2.19097652 3.3340947 0 0 Z " fill="#086FFE" transform="translate(144,219)"/>
<path d="M0 0 C2.58901203 1.0699231 3.36073032 2.27020408 4.81640625 4.640625 C5.25597656 5.32769531 5.69554688 6.01476562 6.1484375 6.72265625 C7.00390625 8.828125 7.00390625 8.828125 6.80078125 10.94921875 C5.6001404 13.78014153 3.45335109 15.06954921 1.00390625 16.828125 C-0.14940322 15.25022902 -1.29347302 13.6655768 -2.43359375 12.078125 C-3.07167969 11.19640625 -3.70976563 10.3146875 -4.3671875 9.40625 C-5.82360185 7.10113375 -6.55541196 5.48462928 -6.99609375 2.828125 C-2.60108017 -0.22396776 -2.60108017 -0.22396776 0 0 Z " fill="#086FFE" transform="translate(99.99609375,204.171875)"/>
<path d="M0 0 C2.78712092 1.39356046 3.26463329 3.16505673 4.625 5.9375 C5.07101563 6.83339844 5.51703125 7.72929687 5.9765625 8.65234375 C7 11 7 11 7 13 C2.91211401 16.06591449 2.91211401 16.06591449 0 15.85546875 C-2.74242381 14.68243982 -3.37935897 13.23937085 -4.75 10.625 C-5.17796875 9.83351562 -5.6059375 9.04203125 -6.046875 8.2265625 C-7 6 -7 6 -7 3 C-4.69631264 1.93347808 -2.35981813 0.93578995 0 0 Z " fill="#086FFE" transform="translate(92,189)"/>
<path d="M0 0 C0.72767003 1.23884319 1.43154815 2.49168341 2.125 3.75 C2.51945312 4.44609375 2.91390625 5.1421875 3.3203125 5.859375 C4 8 4 8 3.34375 10.15625 C1.13501505 13.18683981 -1.53578178 13.71695622 -5 15 C-5.84114171 13.56705502 -6.67265687 12.12845595 -7.5 10.6875 C-7.9640625 9.88699219 -8.428125 9.08648437 -8.90625 8.26171875 C-10 6 -10 6 -10 3 C-3.375 0 -3.375 0 0 0 Z " fill="#086FFE" transform="translate(106,185)"/>
<path d="M0 0 C2.19510603 0.25361783 4.38228739 0.57765908 6.5625 0.9375 C8.35880859 1.22947266 8.35880859 1.22947266 10.19140625 1.52734375 C11.11824219 1.68332031 12.04507813 1.83929688 13 2 C12.57742724 3.4835001 12.13643678 4.96176424 11.6875 6.4375 C11.44386719 7.26121094 11.20023438 8.08492187 10.94921875 8.93359375 C10.63597656 9.61550781 10.32273438 10.29742187 10 11 C6.90521121 12.03159626 5.47368607 11.97482862 2.3125 11.5625 C1.50425781 11.46066406 0.69601563 11.35882813 -0.13671875 11.25390625 C-0.75160156 11.17011719 -1.36648437 11.08632812 -2 11 C-1.85957123 9.35369672 -1.71250671 7.70795821 -1.5625 6.0625 C-1.48128906 5.14597656 -1.40007812 4.22945313 -1.31640625 3.28515625 C-1 1 -1 1 0 0 Z " fill="#93C1FE" transform="translate(196,69)"/>
<path d="M0 0 C5.75 1.875 5.75 1.875 8 3 C7.44010697 6.99012371 6.24330232 9.5255052 3.9375 12.8125 C3.11572266 13.99779297 3.11572266 13.99779297 2.27734375 15.20703125 C1.85582031 15.79871094 1.43429687 16.39039063 1 17 C-1.31 15.35 -3.62 13.7 -6 12 C-4.43358249 7.69235185 -2.31663844 3.93828536 0 0 Z " fill="#0150BA" transform="translate(256,204)"/>
<path d="M0 0 C4.95 0 9.9 0 15 0 C14.67 2.97 14.34 5.94 14 9 C9.38 9 4.76 9 0 9 C0 6.03 0 3.06 0 0 Z " fill="#93C1FE" transform="translate(180,57)"/>
<path d="M0 0 C4.29 0.33 8.58 0.66 13 1 C12.125 9.875 12.125 9.875 11 11 C7.3308423 11.14310287 3.67284559 11.04221662 0 11 C0 7.37 0 3.74 0 0 Z " fill="#93C1FE" transform="translate(180,68)"/>
<path d="M0 0 C6.75 0.75 6.75 0.75 9 3 C5.535 9.435 5.535 9.435 2 16 C-0.64 14.68 -3.28 13.36 -6 12 C-4.02 8.04 -2.04 4.08 0 0 Z " fill="#0150BA" transform="translate(264,190)"/>
<path d="M0 0 C1.265625 1.84765625 1.265625 1.84765625 2.25 4.0625 C2.58515625 4.79597656 2.9203125 5.52945313 3.265625 6.28515625 C3.50796875 6.85105469 3.7503125 7.41695312 4 8 C1.11847361 9.67530604 -1.1363371 10.95681686 -4.5 11.125 C-8.34172075 9.39622566 -10.48928149 6.30448518 -13 3 C-9.56595535 -0.43404465 -4.58158666 -1.92613643 0 0 Z " fill="#93C1FE" transform="translate(138,89)"/>
<path d="M0 0 C1.8253125 0.0309375 1.8253125 0.0309375 3.6875 0.0625 C3.6875 3.6925 3.6875 7.3225 3.6875 11.0625 C0.0575 11.0625 -3.5725 11.0625 -7.3125 11.0625 C-7.9725 7.7625 -8.6325 4.4625 -9.3125 1.0625 C-5.83919872 0.36783974 -3.39947137 -0.05761816 0 0 Z " fill="#93C1FE" transform="translate(173.3125,67.9375)"/>
<path d="M0 0 C1.77503906 0.03480469 1.77503906 0.03480469 3.5859375 0.0703125 C5.36871094 0.09738281 5.36871094 0.09738281 7.1875 0.125 C8.10273438 0.14820313 9.01796875 0.17140625 9.9609375 0.1953125 C9.9609375 3.1653125 9.9609375 6.1353125 9.9609375 9.1953125 C5.6709375 9.1953125 1.3809375 9.1953125 -3.0390625 9.1953125 C-3.6990625 6.8853125 -4.3590625 4.5753125 -5.0390625 2.1953125 C-3.0390625 0.1953125 -3.0390625 0.1953125 0 0 Z " fill="#93C2FE" transform="translate(167.0390625,56.8046875)"/>
<path d="M0 0 C-0.14168137 1.43791516 -0.28851043 2.8753237 -0.4375 4.3125 C-0.51871094 5.11300781 -0.59992188 5.91351563 -0.68359375 6.73828125 C-1 9 -1 9 -2 12 C-5.63 12 -9.26 12 -13 12 C-12.609375 5.1640625 -12.609375 5.1640625 -12 3 C-8.43616436 0.59403501 -4.25637884 0 0 0 Z " fill="#0150BA" transform="translate(262,143)"/>
<path d="M0 0 C1.640625 1.42578125 1.640625 1.42578125 3.25 3.3125 C4.06210938 4.23482422 4.06210938 4.23482422 4.890625 5.17578125 C5.25671875 5.77777344 5.6228125 6.37976563 6 7 C5 10 5 10 3.25 11.25 C0.22663806 12.25778731 -0.9892157 12.12029183 -4 11 C-6.47091029 9.14166955 -8.75099718 7.1193773 -11 5 C-7.7410665 1.54211998 -4.83323623 0 0 0 Z " fill="#93C1FE" transform="translate(133,104)"/>
<path d="M0 0 C3.00765886 2.84936103 5.27845212 5.23511958 7 9 C5.88121617 10.17262904 4.75476949 11.33795138 3.625 12.5 C2.99851563 13.1496875 2.37203125 13.799375 1.7265625 14.46875 C0 16 0 16 -2 16 C-5.97850467 9.73084112 -5.97850467 9.73084112 -6.0625 6.875 C-4.49267542 4.10472134 -2.32523514 2.1463709 0 0 Z " fill="#0150BA" transform="translate(221,210)"/>
<path d="M0 0 C5 1 5 1 8 3 C7.85851011 4.6045556 7.71164314 6.20863767 7.5625 7.8125 C7.48128906 8.70582031 7.40007812 9.59914062 7.31640625 10.51953125 C7 13 7 13 6 16 C2.35008834 14.68197635 0.2104799 13.40785992 -3 11 C-2.01 7.37 -1.02 3.74 0 0 Z " fill="#086FFE" transform="translate(159,214)"/>
<path d="M0 0 C1.7143618 1.95927063 3.38405168 3.95880212 5 6 C3.66511872 9.59391114 2.03977277 12.75490696 0 16 C-1.15224028 15.07038578 -2.29659176 14.1309875 -3.4375 13.1875 C-4.07558594 12.66542969 -4.71367187 12.14335937 -5.37109375 11.60546875 C-7 10 -7 10 -8 7 C-6.85546875 5.17578125 -6.85546875 5.17578125 -5.1875 3.3125 C-4.37345703 2.37857422 -4.37345703 2.37857422 -3.54296875 1.42578125 C-2 0 -2 0 0 0 Z " fill="#086FFE" transform="translate(138,210)"/>
<path d="M0 0 C0.0270043 1.45823212 0.04639787 2.91660675 0.0625 4.375 C0.07410156 5.18710938 0.08570313 5.99921875 0.09765625 6.8359375 C0 9 0 9 -1 11 C-3.50390625 11.6328125 -3.50390625 11.6328125 -6.5625 12.125 C-8.08037109 12.37636719 -8.08037109 12.37636719 -9.62890625 12.6328125 C-10.80259766 12.81457031 -10.80259766 12.81457031 -12 13 C-12 10.03 -12 7.06 -12 4 C-10.18821242 3.33139964 -8.37554984 2.66516988 -6.5625 2 C-5.55316406 1.62875 -4.54382813 1.2575 -3.50390625 0.875 C-1 0 -1 0 0 0 Z " fill="#0150BA" transform="translate(249,132)"/>
<path d="M0 0 C0.99 3.3 1.98 6.6 3 10 C-0.61973402 11.31626692 -3.09567131 12 -7 12 C-10.22265625 6.82421875 -10.22265625 6.82421875 -11 5 C-10.67 4.01 -10.34 3.02 -10 2 C-8.22265625 1.26953125 -8.22265625 1.26953125 -6.0625 0.8125 C-4.99708984 0.57466797 -4.99708984 0.57466797 -3.91015625 0.33203125 C-2 0 -2 0 0 0 Z " fill="#93C1FE" transform="translate(151,84)"/>
<path d="M0 0 C7.625 0.875 7.625 0.875 11 2 C9.66511872 5.59391114 8.03977277 8.75490696 6 12 C1.545 11.01 1.545 11.01 -3 10 C-2.49287967 6.28111761 -1.88391785 3.26545761 0 0 Z " fill="#93C1FE" transform="translate(207,84)"/>
<path d="M0 0 C3.63 0 7.26 0 11 0 C11.66 2.97 12.32 5.94 13 9 C6.375 11 6.375 11 3 11 C2.49384702 9.73160474 1.99530901 8.46016898 1.5 7.1875 C1.2215625 6.47980469 0.943125 5.77210938 0.65625 5.04296875 C0 3 0 3 0 0 Z " fill="#086FFE" transform="translate(98,158)"/>
<path d="M0 0 C3.63 0 7.26 0 11 0 C10.01 3.63 9.02 7.26 8 11 C4.7 10.34 1.4 9.68 -2 9 C-1.125 2.25 -1.125 2.25 0 0 Z " fill="#0150BA" transform="translate(248,158)"/>
<path d="M0 0 C2.95409701 1.37154504 5.44008376 2.98863724 8 5 C6.6062718 9.43458973 4.39417765 11.87378374 1 15 C-0.98 12.69 -2.96 10.38 -5 8 C-3.47524303 4.95048605 -2.07114674 2.63600494 0 0 Z " fill="#0150BB" transform="translate(228,201)"/>
<path d="M0 0 C2.07530387 2.92079805 3 4.37546731 3 8 C1.46875 9.38671875 1.46875 9.38671875 -0.5 10.6875 C-1.1496875 11.12449219 -1.799375 11.56148437 -2.46875 12.01171875 C-2.9740625 12.33785156 -3.479375 12.66398438 -4 13 C-5.00578589 11.71283353 -6.00446798 10.42011342 -7 9.125 C-7.556875 8.40570313 -8.11375 7.68640625 -8.6875 6.9453125 C-10 5 -10 5 -10 3 C-3.375 -1.125 -3.375 -1.125 0 0 Z " fill="#086FFE" transform="translate(124,192)"/>
<path d="M0 0 C0.99 2.64 1.98 5.28 3 8 C-2.29230769 11.07692308 -2.29230769 11.07692308 -5.875 10.6875 C-6.57625 10.460625 -7.2775 10.23375 -8 10 C-8.99 7.03 -9.98 4.06 -11 1 C-7.27569643 0.30710631 -3.78916254 -0.11144596 0 0 Z " fill="#086FFE" transform="translate(113,170)"/>
<path d="M0 0 C3.63 0.33 7.26 0.66 11 1 C10.46599103 4.91606575 9.80330533 7.39338934 8 11 C5.03 10.67 2.06 10.34 -1 10 C-0.67 6.7 -0.34 3.4 0 0 Z " fill="#93C1FE" transform="translate(193,82)"/>
<path d="M0 0 C1.5625 2.8125 1.5625 2.8125 3 6 C2 9 2 9 -0.875 10.75 C-4 12 -4 12 -7 11 C-8.75 8.125 -8.75 8.125 -10 5 C-9 2 -9 2 -6.6875 0.8125 C-4 0 -4 0 0 0 Z " fill="#086FFE" transform="translate(118,181)"/>
<path d="M0 0 C3.0831351 1.19899698 6.06279492 2.47700477 9 4 C7.79157144 8.43090471 6.48331435 10.98112756 3 14 C0.69 12.02 -1.62 10.04 -4 8 C-2.68 5.36 -1.36 2.72 0 0 Z " fill="#0150BA" transform="translate(234,191)"/>
<path d="M0 0 C4.455 0.99 4.455 0.99 9 2 C8.43454163 5.95820859 7.19097652 8.6659053 5 12 C1.51460083 11.35455571 -1.02819057 9.89865603 -4 8 C-2.68 5.36 -1.36 2.72 0 0 Z " fill="#0150BA" transform="translate(240,181)"/>
<path d="M0 0 C3.3 0 6.6 0 10 0 C10 2.97 10 5.94 10 9 C5.545 9.495 5.545 9.495 1 10 C0.67 6.7 0.34 3.4 0 0 Z " fill="#93C1FE" transform="translate(167,82)"/>
<path d="M0 0 C3.63 0 7.26 0 11 0 C10.34 3.3 9.68 6.6 9 10 C6.03 9.67 3.06 9.34 0 9 C0 6.03 0 3.06 0 0 Z " fill="#93C1FE" transform="translate(180,82)"/>
<path d="M0 0 C4.65432961 5.40502793 4.65432961 5.40502793 5 9 C3.85546875 10.703125 3.85546875 10.703125 2.1875 12.25 C1.64480469 12.77078125 1.10210937 13.2915625 0.54296875 13.828125 C-1 15 -1 15 -3 15 C-3.99 11.7 -4.98 8.4 -6 5 C-4.02 3.35 -2.04 1.7 0 0 Z " fill="#0150BB" transform="translate(206,208)"/>
<path d="M0 0 C2.97 0.99 5.94 1.98 9 3 C5.59274194 9.30342742 5.59274194 9.30342742 2 11 C-1.75 10.1875 -1.75 10.1875 -5 9 C-4.3566152 7.686298 -3.71021785 6.37407102 -3.0625 5.0625 C-2.70285156 4.33160156 -2.34320313 3.60070312 -1.97265625 2.84765625 C-1 1 -1 1 0 0 Z " fill="#93C1FE" transform="translate(214,99)"/>
<path d="M0 0 C3 5.625 3 5.625 3 9 C0.69 9.66 -1.62 10.32 -4 11 C-5.65 8.03 -7.3 5.06 -9 2 C-5.23312136 0.11656068 -3.97041037 -0.22057835 0 0 Z " fill="#93C1FE" transform="translate(155,97)"/>
<path d="M0 0 C1.98 1.65 3.96 3.3 6 5 C4.35 7.97 2.7 10.94 1 14 C-1.31 12.02 -3.62 10.04 -6 8 C-4.02 5.36 -2.04 2.72 0 0 Z " fill="#086FFE" transform="translate(144,200)"/>
<path d="M0 0 C2.475 0.99 2.475 0.99 5 2 C5 6.95 5 11.9 5 17 C1.535 15.02 1.535 15.02 -2 13 C-1.34 8.71 -0.68 4.42 0 0 Z " fill="#076FFE" transform="translate(169,219)"/>
<path d="M0 0 C3.32514612 1.37592253 5.33181293 2.75630292 7 6 C6.17824769 9.13759973 5.29744125 10.70255875 3 13 C2.01 13 1.02 13 0 13 C-1.32 10.36 -2.64 7.72 -4 5 C-2.68 3.35 -1.36 1.7 0 0 Z " fill="#0150BB" transform="translate(212,201)"/>
<path d="M0 0 C3.3 0.33 6.6 0.66 10 1 C10.33 3.64 10.66 6.28 11 9 C7.7 9 4.4 9 1 9 C0.67 6.03 0.34 3.06 0 0 Z " fill="#076FFE" transform="translate(109,146)"/>
<path d="M0 0 C3.83210395 1.60413654 6.87571297 4.07011899 9.6875 7.125 C9.6875 7.785 9.6875 8.445 9.6875 9.125 C7.3125 10 7.3125 10 3.6875 10.125 C0.15490994 8.41653011 -3.07346972 6.33342973 -6.3125 4.125 C-2.6015625 0.140625 -2.6015625 0.140625 0 0 Z " fill="#93C1FE" transform="translate(119.3125,109.875)"/>
<path d="M0 0 C4.455 0.99 4.455 0.99 9 2 C7.90931332 5.77545388 7.0916909 8.47043472 4 11 C1.69 10.34 -0.62 9.68 -3 9 C-2.01 6.03 -1.02 3.06 0 0 Z " fill="#93C1FE" transform="translate(202,96)"/>
<path d="M0 0 C3.3 0 6.6 0 10 0 C9.125 6.875 9.125 6.875 8 8 C4.33655389 8.13568319 1.49384279 8.16461426 -2 7 C-1.34 4.69 -0.68 2.38 0 0 Z " fill="#0150BA" transform="translate(235,158)"/>
<path d="M0 0 C2.62187494 1.04874998 3.79371361 1.64931313 5.25 4.125 C5.4975 4.74375 5.745 5.3625 6 6 C2.38671875 10.6875 2.38671875 10.6875 1 12 C0.01 12 -0.98 12 -2 12 C-6 7.65714286 -6 7.65714286 -6 5 C-4.04072937 3.2856382 -2.04119788 1.61594832 0 0 Z " fill="#086FFE" transform="translate(137,193)"/>
<path d="M0 0 C3.465 1.98 3.465 1.98 7 4 C6 7 6 7 3.25 8.75 C-0.20496738 10.07883361 -1.58809654 10.32685134 -5 9 C-5.66 8.01 -6.32 7.02 -7 6 C-4.69 4.02 -2.38 2.04 0 0 Z " fill="#93C1FE" transform="translate(238,109)"/>
<path d="M0 0 C0.33 3.3 0.66 6.6 1 10 C-4.75 13 -4.75 13 -7 13 C-7.10824843 11.3973218 -7.18570645 9.79254252 -7.25 8.1875 C-7.29640625 7.29417969 -7.3428125 6.40085938 -7.390625 5.48046875 C-7 3 -7 3 -5.171875 1.17578125 C-3 0 -3 0 0 0 Z " fill="#0250BA" transform="translate(189,223)"/>
<path d="M0 0 C5.58918919 3.32972973 5.58918919 3.32972973 7.1875 5.9375 C6.87704554 9.35249906 4.46843071 10.83259743 2 13 C0.02 10.69 -1.96 8.38 -4 6 C-2.68 4.02 -1.36 2.04 0 0 Z " fill="#0150BA" transform="translate(219,193)"/>
<path d="M0 0 C0.99 1.98 1.98 3.96 3 6 C0.36 7.98 -2.28 9.96 -5 12 C-7.0625 9.1875 -7.0625 9.1875 -9 6 C-8 3 -8 3 -5.625 1.3125 C-3 0 -3 0 0 0 Z " fill="#086FFE" transform="translate(134,185)"/>
<path d="M0 0 C3.3 0.66 6.6 1.32 10 2 C9.1875 5.4375 9.1875 5.4375 8 9 C3.82412255 10.39195915 1.86525224 8.82323219 -2 7 C-1.34 4.69 -0.68 2.38 0 0 Z " fill="#0150BA" transform="translate(232,167)"/>
<path d="M0 0 C0.66 1.98 1.32 3.96 2 6 C-3.41538462 9.07692308 -3.41538462 9.07692308 -6.375 8.6875 C-6.91125 8.460625 -7.4475 8.23375 -8 8 C-8.66 5.69 -9.32 3.38 -10 1 C-6.61981469 -0.04005702 -3.5219721 -0.08004482 0 0 Z " fill="#086FFE" transform="translate(125,168)"/>
<path d="M0 0 C2.97 0 5.94 0 9 0 C11 4 11 4 11 7 C8.03 7.66 5.06 8.32 2 9 C0.50178941 5.62902617 0 3.79557881 0 0 Z " fill="#086FFE" transform="translate(112,158)"/>
<path d="M0 0 C0 2.64 0 5.28 0 8 C-3.96 9.32 -7.92 10.64 -12 12 C-12 10.02 -12 8.04 -12 6 C-10.18889433 4.99747693 -8.37607722 3.99804504 -6.5625 3 C-5.55316406 2.443125 -4.54382813 1.88625 -3.50390625 1.3125 C-1 0 -1 0 0 0 Z " fill="#0150BA" transform="translate(249,122)"/>
<path d="M0 0 C2 6.75 2 6.75 2 9 C-0.31 9.33 -2.62 9.66 -5 10 C-8 4.375 -8 4.375 -8 1 C-5.29120665 -0.35439668 -2.99066732 -0.06501451 0 0 Z " fill="#93C1FE" transform="translate(166,95)"/>
<path d="M0 0 C2.97 0.99 5.94 1.98 9 3 C7.68 5.64 6.36 8.28 5 11 C2.0280615 9.87548273 -0.33440687 8.77706209 -3 7 C-1.125 1.125 -1.125 1.125 0 0 Z " fill="#0150BA" transform="translate(229,176)"/>
<path d="M0 0 C2.97 0.33 5.94 0.66 9 1 C8.01 3.97 7.02 6.94 6 10 C3.69 10 1.38 10 -1 10 C-0.67 6.7 -0.34 3.4 0 0 Z " fill="#93C1FE" transform="translate(191,94)"/>
<path d="M0 0 C2.97 1.65 5.94 3.3 9 5 C9 7.31 9 9.62 9 12 C4.545 11.01 4.545 11.01 0 10 C0 6.7 0 3.4 0 0 Z " fill="#086FFE" transform="translate(108,120)"/>
<path d="M0 0 C2.64 0 5.28 0 8 0 C8 2.97 8 5.94 8 9 C5.69 9.33 3.38 9.66 1 10 C0.67 6.7 0.34 3.4 0 0 Z " fill="#93C1FE" transform="translate(169,94)"/>
</svg>
